<svg version="1.1" xmlns="http://www.w3.org/2000/svg" xmlns:xlink="http://www.w3.org/1999/xlink" width="600" height="400"><defs/><g transform="scale(1,1)"><g id="background-f297d097"><rect fill="white" stroke="none" x="0" y="0" width="600" height="400" class="dcg-svg-background"/></g><g id="background-images-f297d097"/><g id="graphpaper-f297d097"><g id="grid-f297d097"><g><path fill="none" stroke="rgb(0,0,0)" class="dcg-svg-minor-gridline" paint-order="fill stroke markers" d=" M 30.5 0 L 30.5 400" stroke-opacity="0.12" stroke-miterlimit="10" stroke-dasharray=""/><path fill="none" stroke="rgb(0,0,0)" class="dcg-svg-minor-gridline" paint-order="fill stroke markers" d=" M 60.5 0 L 60.5 400" stroke-opacity="0.12" stroke-miterlimit="10" stroke-dasharray=""/><path fill="none" stroke="rgb(0,0,0)" class="dcg-svg-minor-gridline" paint-order="fill stroke markers" d=" M 90.5 0 L 90.5 400" stroke-opacity="0.12" stroke-miterlimit="10" stroke-dasharray=""/><path fill="none" stroke="rgb(0,0,0)" class="dcg-svg-minor-gridline" paint-order="fill stroke markers" d=" M 120.5 0 L 120.5 400" stroke-opacity="0.12" stroke-miterlimit="10" stroke-dasharray=""/><path fill="none" stroke="rgb(0,0,0)" class="dcg-svg-minor-gridline" paint-order="fill stroke markers" d=" M 150.5 0 L 150.5 400" stroke-opacity="0.12" stroke-miterlimit="10" stroke-dasharray=""/><path fill="none" stroke="rgb(0,0,0)" class="dcg-svg-minor-gridline" paint-order="fill stroke markers" d=" M 180.5 0 L 180.5 400" stroke-opacity="0.12" stroke-miterlimit="10" stroke-dasharray=""/><path fill="none" stroke="rgb(0,0,0)" class="dcg-svg-minor-gridline" paint-order="fill stroke markers" d=" M 210.5 0 L 210.5 400" stroke-opacity="0.12" stroke-miterlimit="10" stroke-dasharray=""/><path fill="none" stroke="rgb(0,0,0)" class="dcg-svg-minor-gridline" paint-order="fill stroke markers" d=" M 240.5 0 L 240.5 400" stroke-opacity="0.12" stroke-miterlimit="10" stroke-dasharray=""/><path fill="none" stroke="rgb(0,0,0)" class="dcg-svg-minor-gridline" paint-order="fill stroke markers" d=" M 270.5 0 L 270.5 400" stroke-opacity="0.12" stroke-miterlimit="10" stroke-dasharray=""/><path fill="none" stroke="rgb(0,0,0)" class="dcg-svg-minor-gridline" paint-order="fill stroke markers" d=" M 330.5 0 L 330.5 400" stroke-opacity="0.12" stroke-miterlimit="10" stroke-dasharray=""/><path fill="none" stroke="rgb(0,0,0)" class="dcg-svg-minor-gridline" paint-order="fill stroke markers" d=" M 360.5 0 L 360.5 400" stroke-opacity="0.12" stroke-miterlimit="10" stroke-dasharray=""/><path fill="none" stroke="rgb(0,0,0)" class="dcg-svg-minor-gridline" paint-order="fill stroke markers" d=" M 390.5 0 L 390.5 400" stroke-opacity="0.12" stroke-miterlimit="10" stroke-dasharray=""/><path fill="none" stroke="rgb(0,0,0)" class="dcg-svg-minor-gridline" paint-order="fill stroke markers" d=" M 420.5 0 L 420.5 400" stroke-opacity="0.12" stroke-miterlimit="10" stroke-dasharray=""/><path fill="none" stroke="rgb(0,0,0)" class="dcg-svg-minor-gridline" paint-order="fill stroke markers" d=" M 450.5 0 L 450.5 400" stroke-opacity="0.12" stroke-miterlimit="10" stroke-dasharray=""/><path fill="none" stroke="rgb(0,0,0)" class="dcg-svg-minor-gridline" paint-order="fill stroke markers" d=" M 480.5 0 L 480.5 400" stroke-opacity="0.12" stroke-miterlimit="10" stroke-dasharray=""/><path fill="none" stroke="rgb(0,0,0)" class="dcg-svg-minor-gridline" paint-order="fill stroke markers" d=" M 510.5 0 L 510.5 400" stroke-opacity="0.12" stroke-miterlimit="10" stroke-dasharray=""/><path fill="none" stroke="rgb(0,0,0)" class="dcg-svg-minor-gridline" paint-order="fill stroke markers" d=" M 540.5 0 L 540.5 400" stroke-opacity="0.12" stroke-miterlimit="10" stroke-dasharray=""/><path fill="none" stroke="rgb(0,0,0)" class="dcg-svg-minor-gridline" paint-order="fill stroke markers" d=" M 570.5 0 L 570.5 400" stroke-opacity="0.12" stroke-miterlimit="10" stroke-dasharray=""/><path fill="none" stroke="rgb(0,0,0)" class="dcg-svg-minor-gridline" paint-order="fill stroke markers" d=" M 0 371.5 L 600 371.5" stroke-opacity="0.12" stroke-miterlimit="10" stroke-dasharray=""/><path fill="none" stroke="rgb(0,0,0)" class="dcg-svg-minor-gridline" paint-order="fill stroke markers" d=" M 0 342.5 L 600 342.5" stroke-opacity="0.12" stroke-miterlimit="10" stroke-dasharray=""/><path fill="none" stroke="rgb(0,0,0)" class="dcg-svg-minor-gridline" paint-order="fill stroke markers" d=" M 0 314.5 L 600 314.5" stroke-opacity="0.12" stroke-miterlimit="10" stroke-dasharray=""/><path fill="none" stroke="rgb(0,0,0)" class="dcg-svg-minor-gridline" paint-order="fill stroke markers" d=" M 0 285.5 L 600 285.5" stroke-opacity="0.12" stroke-miterlimit="10" stroke-dasharray=""/><path fill="none" stroke="rgb(0,0,0)" class="dcg-svg-minor-gridline" paint-order="fill stroke markers" d=" M 0 257.5 L 600 257.5" stroke-opacity="0.12" stroke-miterlimit="10" stroke-dasharray=""/><path fill="none" stroke="rgb(0,0,0)" class="dcg-svg-minor-gridline" paint-order="fill stroke markers" d=" M 0 228.5 L 600 228.5" stroke-opacity="0.12" stroke-miterlimit="10" stroke-dasharray=""/><path fill="none" stroke="rgb(0,0,0)" class="dcg-svg-minor-gridline" paint-order="fill stroke markers" d=" M 0 171.5 L 600 171.5" stroke-opacity="0.12" stroke-miterlimit="10" stroke-dasharray=""/><path fill="none" stroke="rgb(0,0,0)" class="dcg-svg-minor-gridline" paint-order="fill stroke markers" d=" M 0 142.5 L 600 142.5" stroke-opacity="0.12" stroke-miterlimit="10" stroke-dasharray=""/><path fill="none" stroke="rgb(0,0,0)" class="dcg-svg-minor-gridline" paint-order="fill stroke markers" d=" M 0 114.5 L 600 114.5" stroke-opacity="0.12" stroke-miterlimit="10" stroke-dasharray=""/><path fill="none" stroke="rgb(0,0,0)" class="dcg-svg-minor-gridline" paint-order="fill stroke markers" d=" M 0 85.5 L 600 85.5" stroke-opacity="0.12" stroke-miterlimit="10" stroke-dasharray=""/><path fill="none" stroke="rgb(0,0,0)" class="dcg-svg-minor-gridline" paint-order="fill stroke markers" d=" M 0 57.5 L 600 57.5" stroke-opacity="0.12" stroke-miterlimit="10" stroke-dasharray=""/><path fill="none" stroke="rgb(0,0,0)" class="dcg-svg-minor-gridline" paint-order="fill stroke markers" d=" M 0 28.5 L 600 28.5" stroke-opacity="0.12" stroke-miterlimit="10" stroke-dasharray=""/><path fill="none" stroke="rgb(0,0,0)" class="dcg-svg-major-gridline" paint-order="fill stroke markers" d=" M 150.5 0 L 150.5 400" stroke-opacity="0.31818181818181823" stroke-miterlimit="10" stroke-dasharray=""/><path fill="none" stroke="rgb(0,0,0)" class="dcg-svg-major-gridline" paint-order="fill stroke markers" d=" M 450.5 0 L 450.5 400" stroke-opacity="0.31818181818181823" stroke-miterlimit="10" stroke-dasharray=""/><path fill="none" stroke="rgb(0,0,0)" class="dcg-svg-major-gridline" paint-order="fill stroke markers" d=" M 0 342.5 L 600 342.5" stroke-opacity="0.31818181818181823" stroke-miterlimit="10" stroke-dasharray=""/><path fill="none" stroke="rgb(0,0,0)" class="dcg-svg-major-gridline" paint-order="fill stroke markers" d=" M 0 57.5 L 600 57.5" stroke-opacity="0.31818181818181823" stroke-miterlimit="10" stroke-dasharray=""/></g></g><g id="axis-f297d097"><g id="yaxis-f297d097"><title>Y axis</title><g><path fill="none" stroke="rgb(0,0,0)" class="dcg-svg-axis-line" paint-order="fill stroke markers" d=" M 299.75 0 L 299.75 400" stroke-opacity="0.9" stroke-miterlimit="10" stroke-width="1.5" stroke-dasharray=""/></g></g><g id="xaxis-f297d097"><title>X axis</title><g><path fill="none" stroke="rgb(0,0,0)" class="dcg-svg-axis-line" paint-order="fill stroke markers" d=" M 0 199.75 L 600 199.75" stroke-opacity="0.9" stroke-miterlimit="10" stroke-width="1.5" stroke-dasharray=""/></g></g><g><g class="dcg-svg-axis-value"><text fill="none" stroke="#ffffff" font-family="Arial" font-size="14px" font-style="normal" font-weight="normal" text-decoration="normal" x="291.10693359375" y="215.808" text-anchor="middle" stroke-miterlimit="2" stroke-width="3" stroke-dasharray="">0</text><text fill="#000000" stroke="none" font-family="Arial" font-size="14px" font-style="normal" font-weight="normal" text-decoration="normal" x="291.10693359375" y="215.808" text-anchor="middle">0</text></g><g class="dcg-svg-axis-value dcg-svg-offcenter-axis-value"><text fill="none" stroke="#ffffff" font-family="Arial" font-size="14px" font-style="normal" font-weight="normal" text-decoration="normal" x="13.1171875" y="215.808" text-anchor="middle" stroke-miterlimit="2" stroke-width="3" stroke-dasharray="">-10</text><text fill="#000000" stroke="none" font-family="Arial" font-size="14px" font-style="normal" font-weight="normal" text-decoration="normal" x="13.1171875" y="215.808" text-anchor="middle">-10</text></g><g class="dcg-svg-axis-value"><text fill="none" stroke="#ffffff" font-family="Arial" font-size="14px" font-style="normal" font-weight="normal" text-decoration="normal" x="147.6689453125" y="215.808" text-anchor="middle" stroke-miterlimit="2" stroke-width="3" stroke-dasharray="">-5</text><text fill="#000000" stroke="none" font-family="Arial" font-size="14px" font-style="normal" font-weight="normal" text-decoration="normal" x="147.6689453125" y="215.808" text-anchor="middle">-5</text></g><g class="dcg-svg-axis-value"><text fill="none" stroke="#ffffff" font-family="Arial" font-size="14px" font-style="normal" font-weight="normal" text-decoration="normal" x="450" y="215.808" text-anchor="middle" stroke-miterlimit="2" stroke-width="3" stroke-dasharray="">5</text><text fill="#000000" stroke="none" font-family="Arial" font-size="14px" font-style="normal" font-weight="normal" text-decoration="normal" x="450" y="215.808" text-anchor="middle">5</text></g><g class="dcg-svg-axis-value dcg-svg-offcenter-axis-value"><text fill="none" stroke="#ffffff" font-family="Arial" font-size="14px" font-style="normal" font-weight="normal" text-decoration="normal" x="589.2138671875" y="215.808" text-anchor="middle" stroke-miterlimit="2" stroke-width="3" stroke-dasharray="">10</text><text fill="#000000" stroke="none" font-family="Arial" font-size="14px" font-style="normal" font-weight="normal" text-decoration="normal" x="589.2138671875" y="215.808" text-anchor="middle">10</text></g><g class="dcg-svg-axis-value"><text fill="none" stroke="#ffffff" font-family="Arial" font-size="14px" font-style="normal" font-weight="normal" text-decoration="normal" x="288.77587890625" y="346.6651428571428" text-anchor="middle" stroke-miterlimit="2" stroke-width="3" stroke-dasharray="">-5</text><text fill="#000000" stroke="none" font-family="Arial" font-size="14px" font-style="normal" font-weight="normal" text-decoration="normal" x="288.77587890625" y="346.6651428571428" text-anchor="middle">-5</text></g><g class="dcg-svg-axis-value"><text fill="none" stroke="#ffffff" font-family="Arial" font-size="14px" font-style="normal" font-weight="normal" text-decoration="normal" x="291.10693359375" y="60.95085714285717" text-anchor="middle" stroke-miterlimit="2" stroke-width="3" stroke-dasharray="">5</text><text fill="#000000" stroke="none" font-family="Arial" font-size="14px" font-style="normal" font-weight="normal" text-decoration="normal" x="291.10693359375" y="60.95085714285717" text-anchor="middle">5</text></g></g></g></g><g id="expressions-f297d097"><g id="sketch-f297d097"><title>Expression 1</title><g><path fill="none" stroke="#2d70b3" class="dcg-svg-curve" paint-order="fill stroke markers" d=" M 300 200 L 300 200 L 302.06850079993507 199.86362610492273 L 304.10734676699514 199.4558067869189 L 306.0871191083449 198.78043981949202 L 307.97886953319704 197.8439904572691 L 309.90904115336156 196.53527143821833 L 311.8029181017361 194.79646066058888 L 313.33309367565704 192.91485401996619 L 314.62146751192705 190.79009513410878 L 315.5650210772963 188.64991924904393 L 316.2601496375193 186.34738072852898 L 316.6882462727286 183.90544215472835 L 316.8328834715473 181.34870866336192 L 316.6799602525859 178.70324864271376 L 316.2178335306548 175.9964030759985 L 315.437432794658 173.25658475348752 L 314.332357267465 170.51306864852677 L 312.8989548266997 167.79577481152353 L 311.13638207869417 165.13504518777472 L 309.0466450951742 162.5614158083292 L 306.39960955312984 159.88898976232093 L 303.37930686299137 157.39572777292227 L 300.2949018391193 155.30050687606453 L 296.9227091360533 153.41701177655466 L 293.6213153537764 151.91191603226522 L 290.11024720978185 150.62485743033338 L 286.40568758781825 149.5749036809245 L 282.5255006514708 148.7800200330019 L 278.8992249683877 148.2965704175833 L 275.1616697170794 148.04457430774193 L 271.32899558573473 148.0343524398873 L 267.4182252855102 148.27521068757636 L 263.44717388130056 148.77538066609213 L 259.43437485451574 149.54196463953394 L 255.39900218852804 150.58088499854284 L 251.36078878554727 151.8968385591059 L 247.33994154058638 153.4932559141152 L 243.35705341384522 155.37226604957783 L 239.43301285718593 157.53466641665216 L 235.16764340243742 160.26897925104632 L 231.03004629505807 163.34967696747933 L 227.0493028270888 166.7718872832246 L 223.25433045227555 170.52861316335446 L 219.67371653899775 174.61073474732078 L 216.65767044438945 178.55361976916976 L 213.8580417091801 182.74137562735686 L 211.29432337702656 187.16302508516725 L 208.9853805130577 191.80627182313492 L 206.9493557860618 196.65753386924385 L 205.38270044798682 201.1324368027596 L 204.0569607936347 205.74878513044985 L 202.98309643725278 210.49464417302528 L 202.17140669887857 215.357388256929 L 201.63148542283824 220.3237342175613 L 201.37217768746524 225.37977747840608 L 201.40153856352865 230.511030608543 L 201.7267940732897 235.70246425247245 L 202.35430449602813 240.93855031791452 L 203.2895301593145 246.20330729929424 L 204.53699984827165 251.48034760701756 L 206.10028195758443 256.75292676540124 L 207.98195850310316 262.00399433527224 L 210.18360210156953 267.216246410815 L 212.7057560182903 272.3721795342438 L 215.54791737352707 277.45414586633285 L 218.70852358897886 282.4444094457635 L 222.18494214604243 287.32520336567086 L 225.97346371756254 292.0787876916979 L 230.06929872457272 296.68750794231863 L 234.46657735908894 301.133853949177 L 239.15835310340682 305.4005189127257 L 244.77859449551283 309.9645318690347 L 250.06824213905406 313.7931843516741 L 255.62383737565497 317.39003186269167 L 261.4341054122068 320.73922774874075 L 267.4867679737837 323.8254274562405 L 272.97128887918666 326.29847438411383 L 278.6217785729692 328.5493123009277 L 284.42821715948406 330.56880567738733 L 290.3800614649816 332.3482330001739 L 296.46626410027886 333.87931295439216 L 302.67529392992344 335.15422980126937 L 308.99515790999806 336.16565788391716 L 315.41342425322784 336.90678519559924 L 321.91724687664833 337.3713359467416 L 328.4933910837645 337.5535920688711 L 335.1282604299178 337.44841359577913 L 341.8079247164423 337.0512578644585 L 348.51814905618636 336.35819748076943 L 355.2444239500787 335.36593699733044 L 361.97199631164153 334.07182825381295 L 368.6859013737233 332.4738843326259 L 375.37099540921236 330.570792085914 L 382.0119891951424 328.3619231928428 L 388.59348214739134 325.8473437093129 L 395.099997051129 323.0278220755096 L 401.5160153102739 319.90483555007006 L 407.8260126375092 316.48057504309884 L 414.0144951048462 312.7579483238162 L 420.0660354733619 308.74058158223 L 425.96530971953547 304.43281932791535 L 431.69713367460065 299.83972261272936 L 437.246499692512 294.96706556808067 L 442.5986132614821 289.8213302512186 L 447.73892947361 284.4096997988768 L 452.65318926687024 278.7400498905052 L 457.3274553536808 272.82093852724364 L 461.748147750408 266.6615941367121 L 465.90207882251093 260.27190201761476 L 469.77648776055935 253.66238914207696 L 473.3590744030994 246.84420733751742 L 476.6380323232652 239.82911487373713 L 479.19833834887703 233.66879575656088 L 481.52049443872374 227.38097325629562 L 483.59803650972884 220.97404701236104 L 485.42482913677367 214.45669987700933 L 486.99507879486566 207.83788617583284 L 488.30334663595227 201.12681941969845 L 489.34456077576505 194.33295948495166 L 490.1140280667586 187.46599927971707 L 490.60744533392534 180.5358509150893 L 490.82091005103 173.55263140094496 L 490.75093043561145 166.5266478870104 L 490.3944349419405 159.46838247070295 L 489.74878113200555 152.38847659410996 L 488.8117639055166 145.2977150532828 L 487.5816230708723 138.2070096438023 L 486.05705024002674 131.12738246732195 L 484.2371950312135 124.06994892449394 L 482.1216705645405 117.04590042035808 L 479.71055823655485 110.06648680890152 L 477.00441176098695 103.14299860408121 L 474.00426046402777 96.28674898515068 L 470.7116118236538 89.50905562463532 L 467.12845324370505 82.82122236775463 L 463.2572530546281 76.23452079250691 L 459.10096073403 69.76017167999922 L 454.66300634142755 63.40932642492112 L 449.9472991628449 57.193048416338286 L 444.958225562185 51.1222944192055 L 439.7006460375858 45.2078959871715 L 433.234579519259 38.51963036962991 L 426.419587554617 32.07541296544886 L 419.26578739429124 25.891594060582662 L 411.7841339693927 19.984144834149447 L 405.1192490150604 15.152386503795015 L 398.2300193400639 10.544639295868052 L 391.124757928625 6.170169427748618 L 383.8121933854446 2.0379627025830303 L 376.301459476392 -1.843292195563322 L 368.6020839363101 -5.465220051333262 L 368.5204039019686 -5.5 L 170.09685152626514 -5.5 L 168.9963804612841 -5.041686151530399 L 160.35110379960784 -1.0919699797035491 L 151.8331680180902 3.188298949079382 L 143.4565006466192 7.7955587592101665 L 135.2349269223843 12.725715672074244 L 127.18214741285328 17.97414633713265 L 119.3117156798786 23.53570101604774 L 111.63701602074397 29.40470762014195 L 104.17124132205021 35.57497660010986 L 96.92737106235069 42.039806685542146 L 89.91814949940988 48.79199147045162 L 83.15606407787567 55.82382683961151 L 76.65332409299359 63.12711922915466 L 70.42183964578328 70.6931947135167 L 64.47320092483957 78.5129089094379 L 58.81865784958683 86.57665768639323 L 53.469100109435345 94.87438867148119 L 48.435037632857615 103.39561353546038 L 44.488295974033974 110.65949922834395 L 40.77330793988358 118.06448696852523 L 37.29549566803831 125.60385324057407 L 34.06006563727561 133.2706890977966 L 31.072001778334766 141.05790645600763 L 28.336058787925424 148.95824461673047 L 25.856755654271865 156.9642770138527 L 23.638369402339833 165.0684181774925 L 21.684929066691836 173.26293090856404 L 20.000209899699712 181.53993365726885 L 18.587727822624174 189.8914080984826 L 17.450734126834334 198.30920689676876 L 16.592210432203615 206.7850616534917 L 16.01486390946468 215.3105910282895 L 15.72112277305149 223.87730902691646 L 15.71313205068492 232.47663344727448 L 15.992749635690018 241.09989447522062 L 16.561542627745496 249.73834342153677 L 17.420783967479053 258.3831615912713 L 18.571449370025448 267.0254692764677 L 20.014214562358177 275.6563348631033 L 21.749452828899962 284.2667840429358 L 23.777232869595764 292.84780912075297 L 26.09731697431397 301.39037840740843 L 28.70915951711106 309.8854456888692 L 31.61190577356581 318.3239597613922 L 34.80439106404344 326.6968740228032 L 38.285140225419866 334.99515610977994 L 42.05236741343725 343.20979757091806 L 46.103976237520385 351.33182356528494 L 50.43756022952971 359.3523025761023 L 55.05040364755877 367.2623561291071 L 59.93948261554502 375.0531685051294 L 65.1014665990813 382.71599643634977 L 70.53272021746008 390.2421787756831 L 76.22930539162533 397.6231461287334 L 82.18698382732347 404.8504304377261 L 82.75831278951958 405.5 L 585.067432557233 405.5 L 586.7722687833497 403.72306666285715 L 594.1226016106928 395.55756060172484 L 601.2165634361214 387.15282699918384 L 605.5 381.73558962545195 L 605.5 -5.5 L -5.5 -5.5 L -5.5 405.5 L 605.5 405.5 L 605.5 -5.5 L -5.5 -5.5 L -5.5 405.5 L 605.5 405.5 L 605.5 -5.5 L -5.5 -5.5 L -5.5 405.5 L 605.5 405.5 L 605.5 -5.5 L -5.5 -5.5 L -5.5 405.5" stroke-linecap="round" stroke-linejoin="round" stroke-miterlimit="10" stroke-width="2.5" stroke-dasharray=""/></g></g></g><g id="labels-f297d097"/></g></svg>