<svg version="1.1" xmlns="http://www.w3.org/2000/svg" viewBox="0 0 209.5999755859375 209.5999755859375" width="209.5999755859375" height="209.5999755859375" class="excalidraw-svg"><!-- svg-source:excalidraw --><metadata></metadata><defs><style class="style-fonts">
      </style></defs><rect x="0" y="0" width="209.5999755859375" height="209.5999755859375" fill="#ffffff"></rect><g stroke-linecap="round" transform="translate(10 10) rotate(0 94.79998779296875 94.79998779296875)"><path d="M139.34 10.78 C150.33 14.64, 160.45 24.49, 168.19 33.91 C175.93 43.33, 182.32 55.74, 185.78 67.29 C189.25 78.85, 190.29 91.23, 188.98 103.22 C187.68 115.21, 183.71 128.48, 177.98 139.25 C172.24 150.03, 163.88 160.06, 154.57 167.88 C145.26 175.69, 133.69 182.6, 122.13 186.15 C110.58 189.69, 97.08 190.3, 85.25 189.15 C73.42 188, 61.85 184.94, 51.15 179.24 C40.44 173.54, 28.98 164.23, 21.02 154.94 C13.07 145.64, 6.97 135.11, 3.42 123.48 C-0.12 111.84, -1.35 97.17, -0.24 85.12 C0.88 73.06, 4.19 61.69, 10.1 51.16 C16.01 40.63, 25.72 29.67, 35.23 21.94 C44.73 14.21, 55.72 8.41, 67.12 4.79 C78.53 1.17, 90.23 -1.5, 103.67 0.22 C117.11 1.95, 139.48 11.51, 147.76 15.14 C156.05 18.77, 154.44 20.51, 153.4 21.99 M88.07 -0.9 C99.25 -3.25, 113.53 1.4, 124.92 5.43 C136.32 9.46, 147.16 15.12, 156.43 23.28 C165.7 31.44, 174.79 43.5, 180.52 54.38 C186.26 65.25, 190.18 76.65, 190.83 88.54 C191.48 100.43, 188.52 113.96, 184.42 125.71 C180.32 137.45, 174.44 150.14, 166.23 159 C158.02 167.86, 146.23 173.85, 135.18 178.87 C124.14 183.89, 111.73 188.31, 99.96 189.12 C88.18 189.93, 75.93 187.7, 64.54 183.73 C53.14 179.76, 40.88 173.21, 31.6 165.29 C22.32 157.38, 14.04 146.85, 8.88 136.25 C3.72 125.65, 1.23 113.91, 0.65 101.71 C0.08 89.5, 1.71 74.59, 5.43 63.02 C9.15 51.46, 15.1 41.01, 22.96 32.3 C30.81 23.59, 41.59 16.09, 52.56 10.77 C63.53 5.45, 82.58 1.59, 88.78 0.37 C94.98 -0.85, 89.4 2, 89.74 3.43" stroke="#1e1e1e" stroke-width="2" fill="none"></path></g></svg>