<svg version="1.1" xmlns="http://www.w3.org/2000/svg" viewBox="0 0 376.8385776480753 49.48136733544059" width="376.8385776480753" height="49.48136733544059" class="excalidraw-svg"><!-- svg-source:excalidraw --><metadata></metadata><defs><style class="style-fonts">
      </style></defs><rect x="0" y="0" width="376.8385776480753" height="49.48136733544059" fill="#ffffff"></rect><g stroke-linecap="round"><g transform="translate(10.726884205462397 38.488849211484194) rotate(0 177.5999755859375 -14)"><path d="M0.48 -1.06 C59.86 -5.63, 297.07 -23.81, 356.11 -28.49 M-0.73 0.99 C58.58 -3.32, 296.56 -22.31, 355.64 -27.21" stroke="#1e1e1e" stroke-width="2" fill="none"></path></g><g transform="translate(10.726884205462397 38.488849211484194) rotate(0 177.5999755859375 -14)"><path d="M332.92 -16.79 C337.79 -18.37, 345.3 -23.62, 355.64 -27.21 M332.92 -16.79 C336.76 -18.36, 341.73 -21.78, 355.64 -27.21" stroke="#1e1e1e" stroke-width="2" fill="none"></path></g><g transform="translate(10.726884205462397 38.488849211484194) rotate(0 177.5999755859375 -14)"><path d="M331.54 -33.83 C336.66 -30.5, 344.57 -30.84, 355.64 -27.21 M331.54 -33.83 C335.51 -31.89, 340.77 -31.78, 355.64 -27.21" stroke="#1e1e1e" stroke-width="2" fill="none"></path></g></g><mask></mask></svg>