<svg version="1.1" xmlns="http://www.w3.org/2000/svg" viewBox="0 0 311.4063171716666 311.4063171716666" width="311.4063171716666" height="311.4063171716666" filter="invert(93%) hue-rotate(180deg)" class="excalidraw-svg"><!-- svg-source:excalidraw --><metadata></metadata><defs><style class="style-fonts">
      </style></defs><rect x="0" y="0" width="311.4063171716666" height="311.4063171716666" fill="#ffffff"></rect><g stroke-linecap="round"><g transform="translate(203.41695219173522 50.127023295763934) rotate(0 0 116.80000305175781)"><path d="M-0.73 -0.01 C-1.02 38.9, -1.03 193.85, -1.09 232.65 M1.09 -1.06 C1.1 38.04, 1.03 194.57, 1.04 233.68" stroke="#1971c2" stroke-width="2" fill="none"></path></g></g><mask></mask><g stroke-linecap="round"><g transform="translate(174.61682219439365 49.815100665654995) rotate(0 0 116.80000305175781)"><path d="M-0.2 -1.14 C-0.08 37.73, 0.8 193.48, 0.93 232.5 M-1.76 0.88 C-1.74 39.91, 0.16 194.61, 0.48 233.46" stroke="#1971c2" stroke-width="2" fill="none"></path></g></g><mask></mask><g stroke-linecap="round"><g transform="translate(175.41695219173522 47.727014140490496) rotate(0 12 0.40000152587890625)"><path d="M0 0.49 C3.92 0.58, 19.71 0.8, 23.68 0.92 M-0.67 0.26 C3.42 0.15, 20.74 0.01, 24.75 0.02" stroke="#1971c2" stroke-width="2" fill="none"></path></g></g><mask></mask><g stroke-linecap="round"><g transform="translate(176.97553387067245 285.65525654944315) rotate(0 12 0.40000152587890625)"><path d="M-0.1 -0.24 C3.95 -0.18, 19.72 0.16, 23.79 0.33 M-0.81 0.82 C3.2 0.94, 19.1 0.7, 23.25 0.79" stroke="#1971c2" stroke-width="2" fill="none"></path></g></g><mask></mask><g stroke-linecap="round"><g transform="translate(124.55028165397545 53.12608468414851) rotate(0 0 116.80000305175781)"><path d="M-0.05 -0.77 C-0.15 38.35, -0.15 195, -0.03 234.08 M-1.53 1.43 C-1.84 40.26, -1.29 193.28, -0.99 232.21" stroke="#e03131" stroke-width="2" fill="none"></path></g></g><mask></mask><g stroke-linecap="round"><g transform="translate(95.75015165663382 52.81416205403957) rotate(0 0 116.80000305175781)"><path d="M-0.03 0.48 C0.09 39.56, 0.71 195.01, 0.69 233.69 M-1.5 -0.31 C-1.47 39.04, 0.02 196.33, 0.1 235.27" stroke="#e03131" stroke-width="2" fill="none"></path></g></g><mask></mask><g stroke-linecap="round"><g transform="translate(96.55028165397545 50.72607552887507) rotate(0 12 0.40000152587890625)"><path d="M0.32 0.04 C4.31 0.05, 19.96 0.2, 23.92 0.31 M-0.18 -0.42 C3.73 -0.37, 19.46 0.48, 23.45 0.76" stroke="#e03131" stroke-width="2" fill="none"></path></g></g><mask></mask><g stroke-linecap="round"><g transform="translate(98.10886333291268 288.6543179378277) rotate(0 12 0.40000152587890625)"><path d="M-0.08 -0.49 C3.88 -0.37, 20.15 0.55, 24.08 0.72 M-0.78 0.45 C3.09 0.65, 19.46 1.29, 23.69 1.38" stroke="#e03131" stroke-width="2" fill="none"></path></g></g><mask></mask><g stroke-linecap="round"><g transform="translate(111.55961151032221 97.69718182135503) rotate(0 39.522730928475426 0.39325488416193366)"><path d="M0.85 0.92 C0.9 0.74, -12.9 -0.37, 0.13 -0.22 C13.16 -0.07, 65.9 1.5, 79.03 1.8 M-0.16 0.36 C-0.24 0.29, -13.82 1.26, -0.75 1.2 C12.32 1.14, 64.95 0.28, 78.26 -0.01" stroke="#2f9e44" stroke-width="2" fill="none"></path></g></g><mask></mask><g stroke-linecap="round"><g transform="translate(110.25579682761219 167.70194756745235) rotate(0 39.522730928475426 0.39325488416193366)"><path d="M-0.29 1.03 C0.01 0.85, -12.36 -0.69, 0.81 -0.54 C13.98 -0.39, 65.87 1.93, 78.74 1.96 M1.75 0.53 C2.06 0.45, -12.39 0.76, 0.29 0.71 C12.96 0.66, 64.9 0.33, 77.81 0.23" stroke="#2f9e44" stroke-width="2" fill="none"></path></g></g><mask></mask><g stroke-linecap="round"><g transform="translate(189.42527871136275 101.23652078394912) rotate(0 0.39325488416193366 33.62381015491697)"><path d="M0.94 -0.83 C1.24 10.37, 1.51 55.36, 1.32 66.76 M-0.02 1.35 C0.2 12.75, 0.29 56.76, 0.65 68.04" stroke="#2f9e44" stroke-width="2" fill="none"></path></g></g><mask></mask><g stroke-linecap="round"><g transform="translate(106.84666926423427 99.88011123658472) rotate(0 0.39325488416193366 33.62381015491697)"><path d="M0.29 -0.43 C0.14 10.63, 0.17 56.28, 0.14 67.43 M-1.02 -1.7 C-0.86 10.1, 1.91 57.55, 2.51 69.06" stroke="#2f9e44" stroke-width="2" fill="none"></path></g></g><mask></mask><g stroke-linecap="round" transform="translate(10 10) rotate(0 145.7031585858333 145.7031585858333)"><path d="M32 0 C105.78 -0.67, 179.92 0.12, 259.41 0 M32 0 C84 0.98, 137.63 0.18, 259.41 0 M259.41 0 C282.67 1.36, 292.79 10.1, 291.41 32 M259.41 0 C279.49 -0.43, 292.87 9.51, 291.41 32 M291.41 32 C292.26 78.5, 290.49 121.99, 291.41 259.41 M291.41 32 C292.28 110.34, 291.67 188.43, 291.41 259.41 M291.41 259.41 C291.54 279.83, 282.36 293.02, 259.41 291.41 M291.41 259.41 C291.97 279.31, 280.77 290.29, 259.41 291.41 M259.41 291.41 C168.68 290.67, 82.84 290.91, 32 291.41 M259.41 291.41 C174.03 292.82, 88.07 292.09, 32 291.41 M32 291.41 C9.75 293.38, -0.93 282.46, 0 259.41 M32 291.41 C9.9 291.01, 0.97 282.55, 0 259.41 M0 259.41 C-0.37 185.02, -0.4 110.1, 0 32 M0 259.41 C-2.39 204.91, -1.89 152.08, 0 32 M0 32 C1.07 9.04, 9.44 -0.45, 32 0 M0 32 C-1.94 10.1, 12.43 1.25, 32 0" stroke="#1e1e1e" stroke-width="2" fill="none"></path></g><g stroke-linecap="round"><g transform="translate(114.6073893685699 67.02282830278926) rotate(0 36.769901734205234 -0.19663119250901673)"><path d="M0.06 1.17 C12.22 1.05, 61.68 -0.05, 74.03 -0.29 M-1.36 0.75 C10.59 0.8, 60.83 1.23, 73.34 1.3" stroke="#1e1e1e" stroke-width="2" fill="none"></path></g><g transform="translate(114.6073893685699 67.02282830278926) rotate(0 36.769901734205234 -0.19663119250901673)"><path d="M49.79 9.68 C60.93 7.21, 68.34 4.16, 73.34 1.3 M49.79 9.68 C56.22 6.39, 64.63 5.2, 73.34 1.3" stroke="#1e1e1e" stroke-width="2" fill="none"></path></g><g transform="translate(114.6073893685699 67.02282830278926) rotate(0 36.769901734205234 -0.19663119250901673)"><path d="M49.91 -7.42 C61.06 -3.2, 68.43 0.43, 73.34 1.3 M49.91 -7.42 C56.46 -5.4, 64.83 -1.27, 73.34 1.3" stroke="#1e1e1e" stroke-width="2" fill="none"></path></g></g><mask></mask><g stroke-linecap="round"><g transform="translate(112.09234744914426 95.62212005107835) rotate(0 36.769901734205234 -0.19663119250901673)"><path d="M0.41 0.21 C12.8 -0.01, 62.21 -1.32, 74.28 -1.47 M-0.83 -0.72 C11.47 -0.82, 61.03 -0.7, 73.72 -0.49" stroke="#1e1e1e" stroke-width="2" fill="none"></path></g><g transform="translate(112.09234744914426 95.62212005107835) rotate(0 36.769901734205234 -0.19663119250901673)"><path d="M50.16 7.87 C57.54 6.53, 62.42 1.58, 73.72 -0.49 M50.16 7.87 C56.94 5.04, 63.57 2.47, 73.72 -0.49" stroke="#1e1e1e" stroke-width="2" fill="none"></path></g><g transform="translate(112.09234744914426 95.62212005107835) rotate(0 36.769901734205234 -0.19663119250901673)"><path d="M50.3 -9.23 C57.62 -5.48, 62.45 -5.33, 73.72 -0.49 M50.3 -9.23 C56.96 -7.34, 63.55 -5.17, 73.72 -0.49" stroke="#1e1e1e" stroke-width="2" fill="none"></path></g></g><mask></mask><g stroke-linecap="round"><g transform="translate(112.87888722089264 118.03799348768968) rotate(0 36.769901734205234 -0.19663119250901673)"><path d="M-0.28 -0.59 C12.02 -0.48, 60.55 -0.22, 72.72 -0.12 M1.77 1.72 C14.54 1.5, 62.77 -1.46, 75 -2.1" stroke="#1e1e1e" stroke-width="2" fill="none"></path></g><g transform="translate(112.87888722089264 118.03799348768968) rotate(0 36.769901734205234 -0.19663119250901673)"><path d="M52.03 7.77 C55.95 4.38, 62.22 2.31, 75 -2.1 M52.03 7.77 C59.75 4.09, 68.23 1.85, 75 -2.1" stroke="#1e1e1e" stroke-width="2" fill="none"></path></g><g transform="translate(112.87888722089264 118.03799348768968) rotate(0 36.769901734205234 -0.19663119250901673)"><path d="M51.06 -9.31 C55.08 -9.1, 61.55 -7.58, 75 -2.1 M51.06 -9.31 C58.94 -7.28, 67.75 -3.82, 75 -2.1" stroke="#1e1e1e" stroke-width="2" fill="none"></path></g></g><mask></mask><g stroke-linecap="round"><g transform="translate(114.05865187337844 143.99320588689505) rotate(0 36.769901734205234 -0.19663119250901673)"><path d="M0.41 -1.12 C12.7 -1.06, 61.86 -0.73, 73.99 -0.46 M-0.83 0.91 C11.31 1.24, 61.1 1.42, 73.28 1.04" stroke="#1e1e1e" stroke-width="2" fill="none"></path></g><g transform="translate(114.05865187337844 143.99320588689505) rotate(0 36.769901734205234 -0.19663119250901673)"><path d="M49.87 9.84 C55.63 7.67, 64.93 3.5, 73.28 1.04 M49.87 9.84 C58.72 6.11, 68.12 3.67, 73.28 1.04" stroke="#1e1e1e" stroke-width="2" fill="none"></path></g><g transform="translate(114.05865187337844 143.99320588689505) rotate(0 36.769901734205234 -0.19663119250901673)"><path d="M49.69 -7.26 C55.39 -3.91, 64.75 -2.56, 73.28 1.04 M49.69 -7.26 C58.74 -4.58, 68.2 -0.6, 73.28 1.04" stroke="#1e1e1e" stroke-width="2" fill="none"></path></g></g><mask></mask><g stroke-linecap="round"><g transform="translate(114.05865187337844 174.66755190460475) rotate(0 36.769901734205234 -0.19663119250901673)"><path d="M0.9 0.91 C13.18 0.93, 61.6 -0.17, 73.62 -0.24 M-0.08 0.35 C12.05 0.62, 60.7 1.67, 72.71 1.38" stroke="#1e1e1e" stroke-width="2" fill="none"></path></g><g transform="translate(114.05865187337844 174.66755190460475) rotate(0 36.769901734205234 -0.19663119250901673)"><path d="M49.2 9.87 C57.67 7.33, 63.34 3.86, 72.71 1.38 M49.2 9.87 C58.58 6.03, 65.95 3.56, 72.71 1.38" stroke="#1e1e1e" stroke-width="2" fill="none"></path></g><g transform="translate(114.05865187337844 174.66755190460475) rotate(0 36.769901734205234 -0.19663119250901673)"><path d="M49.24 -7.23 C57.65 -4.73, 63.3 -3.17, 72.71 1.38 M49.24 -7.23 C58.68 -4.66, 66.04 -0.72, 72.71 1.38" stroke="#1e1e1e" stroke-width="2" fill="none"></path></g></g><mask></mask><g stroke-linecap="round"><g transform="translate(114.45193676096488 204.9486430381525) rotate(0 36.769901734205234 -0.19663119250901673)"><path d="M0.9 0.53 C12.94 0.67, 60.47 0.65, 72.4 0.33 M-0.09 -0.24 C12.29 -0.4, 62.03 -1.35, 74.51 -1.41" stroke="#1e1e1e" stroke-width="2" fill="none"></path></g><g transform="translate(114.45193676096488 204.9486430381525) rotate(0 36.769901734205234 -0.19663119250901673)"><path d="M51.13 7.44 C59.37 2.6, 67.01 -0.05, 74.51 -1.41 M51.13 7.44 C55.25 6.23, 61.99 4.24, 74.51 -1.41" stroke="#1e1e1e" stroke-width="2" fill="none"></path></g><g transform="translate(114.45193676096488 204.9486430381525) rotate(0 36.769901734205234 -0.19663119250901673)"><path d="M50.91 -9.66 C59.15 -9.15, 66.86 -6.45, 74.51 -1.41 M50.91 -9.66 C55.04 -7.18, 61.84 -5.48, 74.51 -1.41" stroke="#1e1e1e" stroke-width="2" fill="none"></path></g></g><mask></mask><g stroke-linecap="round"><g transform="translate(112.87888722089264 238.3758182501324) rotate(0 36.769901734205234 -0.19663119250901673)"><path d="M-1.01 -0.2 C11.06 -0.28, 60.62 -1.65, 73.17 -1.52 M0.66 -1.35 C12.48 -1.23, 59.81 -0.58, 72.02 -0.58" stroke="#1e1e1e" stroke-width="2" fill="none"></path></g><g transform="translate(112.87888722089264 238.3758182501324) rotate(0 36.769901734205234 -0.19663119250901673)"><path d="M48.47 7.79 C56.69 4.35, 63.63 3.2, 72.02 -0.58 M48.47 7.79 C57.86 4.88, 65.85 2.27, 72.02 -0.58" stroke="#1e1e1e" stroke-width="2" fill="none"></path></g><g transform="translate(112.87888722089264 238.3758182501324) rotate(0 36.769901734205234 -0.19663119250901673)"><path d="M48.6 -9.31 C56.62 -6.59, 63.51 -1.58, 72.02 -0.58 M48.6 -9.31 C58.04 -5.79, 65.98 -1.96, 72.02 -0.58" stroke="#1e1e1e" stroke-width="2" fill="none"></path></g></g><mask></mask><g stroke-linecap="round"><g transform="translate(115.23844652928875 271.4097385779504) rotate(0 36.769901734205234 -0.19663119250901673)"><path d="M0.92 0.65 C13.2 0.58, 60.47 0.54, 72.58 0.3 M-0.06 -0.05 C12.69 -0.53, 62.63 -1.53, 74.79 -1.46" stroke="#1e1e1e" stroke-width="2" fill="none"></path></g><g transform="translate(115.23844652928875 271.4097385779504) rotate(0 36.769901734205234 -0.19663119250901673)"><path d="M51.38 7.32 C57.23 3.73, 62.11 3.63, 74.79 -1.46 M51.38 7.32 C58.47 4.67, 63.65 2.36, 74.79 -1.46" stroke="#1e1e1e" stroke-width="2" fill="none"></path></g><g transform="translate(115.23844652928875 271.4097385779504) rotate(0 36.769901734205234 -0.19663119250901673)"><path d="M51.22 -9.78 C57.21 -9.85, 62.12 -6.43, 74.79 -1.46 M51.22 -9.78 C58.46 -7.81, 63.68 -5.5, 74.79 -1.46" stroke="#1e1e1e" stroke-width="2" fill="none"></path></g></g><mask></mask></svg>