<svg version="1.1" xmlns="http://www.w3.org/2000/svg" viewBox="0 0 747.2000122070312 468.3999938964844" width="747.2000122070312" height="468.3999938964844" filter="invert(93%) hue-rotate(180deg)" class="excalidraw-svg"><!-- svg-source:excalidraw --><metadata></metadata><defs><style class="style-fonts">
      </style></defs><rect x="0" y="0" width="747.2000122070312" height="468.3999938964844" fill="#ffffff"></rect><g stroke-opacity="0.4" fill-opacity="0.4" stroke-linecap="round" transform="translate(34.800018310546875 10.399993896484375) rotate(0 54 54)"><path d="M41.03 0.78 C49.08 -2.03, 59.59 -0.75, 68.22 1.81 C76.84 4.37, 86.42 9.5, 92.78 16.12 C99.14 22.74, 104.15 32.58, 106.37 41.51 C108.6 50.44, 108.56 61.22, 106.13 69.71 C103.7 78.2, 98.35 86.26, 91.79 92.45 C85.23 98.64, 75.52 104.68, 66.79 106.84 C58.07 109, 48.2 107.81, 39.45 105.42 C30.7 103.02, 20.49 98.98, 14.3 92.46 C8.11 85.95, 4.31 75.11, 2.3 66.32 C0.29 57.53, -0.03 48.39, 2.24 39.72 C4.51 31.06, 8.47 20.78, 15.91 14.34 C23.35 7.9, 41 3.28, 46.87 1.08 C52.74 -1.12, 51.01 0.35, 51.14 1.13 M33.73 4.59 C41.6 0.49, 53.6 -0.37, 62.34 0.69 C71.08 1.76, 79.5 5.42, 86.18 10.98 C92.86 16.54, 98.82 25.64, 102.41 34.02 C106.01 42.41, 108.62 52.55, 107.74 61.31 C106.86 70.07, 102.57 79.3, 97.13 86.59 C91.68 93.88, 83.53 101.49, 75.07 105.06 C66.62 108.62, 55.13 109.47, 46.39 107.99 C37.65 106.52, 29.42 101.53, 22.61 96.2 C15.8 90.87, 9.41 84.25, 5.53 76 C1.65 67.76, -1.39 55.75, -0.65 46.72 C0.09 37.69, 4.57 29.08, 9.97 21.81 C15.37 14.55, 27.83 5.68, 31.75 3.13 C35.67 0.59, 32.94 5.66, 33.48 6.52" stroke="#1971c2" stroke-width="2" fill="none"></path></g><g stroke-opacity="0.4" fill-opacity="0.4" stroke-linecap="round" transform="translate(76.4000244140625 52.79998779296875) rotate(0 12 12)"><path d="M11.81 0.2 C14.28 0.07, 17.85 0.9, 19.87 2.55 C21.89 4.2, 23.43 7.5, 23.94 10.11 C24.44 12.72, 24.28 15.98, 22.93 18.2 C21.58 20.42, 18.4 22.61, 15.84 23.41 C13.29 24.21, 10.01 23.88, 7.59 22.98 C5.16 22.08, 2.6 20.17, 1.28 18.03 C-0.04 15.89, -0.84 12.59, -0.33 10.14 C0.18 7.69, 2.28 5.05, 4.36 3.33 C6.44 1.6, 10.81 0.35, 12.16 -0.21 C13.52 -0.76, 12.44 -0.27, 12.51 0 M10.18 0.13 C12.64 -0.57, 15.79 -0.3, 17.99 1.13 C20.19 2.56, 22.48 6.08, 23.39 8.69 C24.3 11.31, 24.33 14.57, 23.46 16.83 C22.59 19.09, 20.59 21.15, 18.19 22.27 C15.78 23.38, 11.55 24.11, 9.04 23.52 C6.53 22.94, 4.71 20.63, 3.13 18.75 C1.55 16.87, -0.55 14.71, -0.44 12.25 C-0.34 9.8, 1.93 6.02, 3.76 4.04 C5.59 2.06, 9.56 1.1, 10.53 0.39 C11.51 -0.32, 9.72 -0.4, 9.6 -0.22" stroke="none" stroke-width="0" fill="#ffc9c9"></path><path d="M11.08 -0.35 C13.48 -0.78, 17.21 0.62, 19.36 2.14 C21.51 3.66, 23.46 6.24, 23.97 8.78 C24.49 11.32, 23.69 15.06, 22.44 17.36 C21.2 19.67, 18.73 21.58, 16.5 22.61 C14.27 23.65, 11.55 24.19, 9.07 23.56 C6.59 22.93, 3.2 21.03, 1.62 18.84 C0.05 16.66, -0.72 12.97, -0.38 10.46 C-0.04 7.94, 1.64 5.45, 3.66 3.75 C5.68 2.06, 10.31 0.85, 11.76 0.27 C13.21 -0.31, 12.37 0.05, 12.37 0.28 M13.67 -0.2 C16.02 -0.04, 19.46 1.56, 21.29 3.57 C23.11 5.59, 24.56 9.1, 24.63 11.89 C24.69 14.68, 23.33 18.34, 21.66 20.32 C19.98 22.29, 17.13 23.33, 14.6 23.74 C12.08 24.16, 8.85 23.95, 6.49 22.8 C4.13 21.64, 1.35 19.22, 0.45 16.79 C-0.46 14.36, 0.04 10.62, 1.05 8.2 C2.07 5.78, 4.49 3.72, 6.54 2.28 C8.6 0.83, 12.13 -0.18, 13.39 -0.45 C14.66 -0.72, 13.95 0.39, 14.12 0.64" stroke="#e03131" stroke-width="2" fill="none"></path></g><g stroke-opacity="0.4" fill-opacity="0.4" stroke-linecap="round" transform="translate(181.5999755859375 26) rotate(0 54 54)"><path d="M60.96 0.99 C69.63 1.17, 79.49 4.71, 86.54 10.04 C93.6 15.36, 99.82 24.76, 103.27 32.95 C106.73 41.14, 108.11 50.24, 107.28 59.17 C106.44 68.1, 103.61 79.17, 98.25 86.53 C92.89 93.9, 83.56 99.86, 75.12 103.37 C66.68 106.88, 56.46 108.48, 47.63 107.59 C38.8 106.7, 29.41 103.31, 22.13 98.03 C14.85 92.76, 7.49 84.22, 3.93 75.96 C0.37 67.7, -0.23 57.45, 0.78 48.46 C1.78 39.48, 4.53 29.33, 9.95 22.06 C15.37 14.79, 23.23 8.21, 33.29 4.85 C43.35 1.49, 62.87 1.64, 70.31 1.92 C77.76 2.2, 78.44 5.64, 77.97 6.53 M55.85 0.46 C64.64 0.04, 76.1 3.77, 83.68 8.42 C91.26 13.06, 97.24 20.15, 101.32 28.34 C105.41 36.53, 108.61 48.29, 108.18 57.55 C107.74 66.8, 103.72 76.27, 98.72 83.87 C93.73 91.46, 86.04 99.09, 78.21 103.11 C70.38 107.13, 60.44 108.68, 51.76 108 C43.08 107.33, 33.68 104.05, 26.14 99.05 C18.6 94.05, 10.75 86.05, 6.54 78 C2.33 69.94, 0.6 59.59, 0.87 50.72 C1.15 41.85, 3.26 32.41, 8.18 24.79 C13.1 17.16, 22.31 9.21, 30.41 4.99 C38.5 0.76, 52.38 -0.13, 56.76 -0.54 C61.15 -0.96, 56.77 1.36, 56.72 2.48" stroke="#1971c2" stroke-width="2" fill="none"></path></g><g stroke-opacity="0.4" fill-opacity="0.4" stroke-linecap="round" transform="translate(223.19998168945312 68.39999389648438) rotate(0 12 12)"><path d="M14.41 0.41 C16.96 0.79, 20.34 2.74, 21.97 4.81 C23.61 6.87, 24.47 10.26, 24.22 12.82 C23.97 15.39, 22.31 18.34, 20.47 20.2 C18.63 22.06, 15.69 23.72, 13.17 24 C10.66 24.28, 7.43 23.22, 5.37 21.89 C3.3 20.56, 1.47 18.46, 0.78 16.02 C0.1 13.58, 0.34 9.62, 1.25 7.23 C2.16 4.84, 4.02 2.77, 6.25 1.69 C8.48 0.61, 13.14 0.99, 14.63 0.77 C16.13 0.55, 15.25 0.32, 15.24 0.37 M9.35 -0.02 C11.67 -0.74, 15.76 0.11, 18.01 1.36 C20.25 2.62, 21.9 5.14, 22.81 7.52 C23.72 9.91, 24.15 13.15, 23.47 15.65 C22.79 18.16, 21.05 21.22, 18.75 22.58 C16.45 23.94, 12.17 24.16, 9.65 23.81 C7.14 23.47, 5.34 22.38, 3.66 20.49 C1.98 18.6, -0.37 15.14, -0.43 12.46 C-0.48 9.79, 1.69 6.5, 3.34 4.44 C4.98 2.39, 8.45 0.79, 9.46 0.12 C10.48 -0.54, 9.36 0.19, 9.41 0.46" stroke="none" stroke-width="0" fill="#ffc9c9"></path><path d="M10.85 -0.18 C13.16 -0.62, 16.41 0.86, 18.48 2.24 C20.56 3.63, 22.48 5.66, 23.3 8.12 C24.13 10.58, 24.45 14.56, 23.42 16.99 C22.39 19.41, 19.54 21.55, 17.15 22.66 C14.76 23.77, 11.52 24.18, 9.07 23.64 C6.63 23.11, 4.03 21.48, 2.47 19.46 C0.92 17.43, -0.44 14.06, -0.27 11.49 C-0.1 8.91, 1.65 5.92, 3.49 4.02 C5.33 2.12, 9.37 0.7, 10.79 0.1 C12.22 -0.5, 11.95 0.27, 12.04 0.42 M8.74 0.44 C11.12 -0.19, 14.55 0.08, 16.87 1.22 C19.19 2.36, 21.5 4.93, 22.67 7.26 C23.83 9.59, 24.57 12.84, 23.87 15.21 C23.17 17.59, 20.63 19.98, 18.47 21.53 C16.31 23.08, 13.5 24.64, 10.93 24.52 C8.35 24.4, 4.89 22.63, 3.01 20.8 C1.14 18.96, -0.2 16.13, -0.32 13.5 C-0.43 10.87, 0.67 7.26, 2.32 5.03 C3.98 2.8, 8.46 0.95, 9.62 0.14 C10.79 -0.68, 9.3 -0.01, 9.32 0.15" stroke="#e03131" stroke-width="2" fill="none"></path></g><g stroke-opacity="0.4" fill-opacity="0.4" stroke-linecap="round" transform="translate(336.79998779296875 20.399993896484375) rotate(0 54 54)"><path d="M44.14 0.53 C52.5 -2.06, 63.01 -0.42, 71.44 2.61 C79.86 5.65, 88.64 12.01, 94.67 18.75 C100.7 25.5, 105.8 34.23, 107.59 43.1 C109.39 51.97, 108.37 63.49, 105.44 71.99 C102.5 80.5, 96.79 88.15, 89.96 94.13 C83.13 100.11, 73.32 106.02, 64.46 107.88 C55.6 109.75, 45.41 108.57, 36.79 105.33 C28.17 102.09, 18.84 95.44, 12.74 88.45 C6.64 81.45, 1.88 72.01, 0.18 63.36 C-1.52 54.71, -0.44 44.87, 2.55 36.53 C5.54 28.19, 10.13 19.34, 18.12 13.31 C26.1 7.28, 43.76 2.38, 50.47 0.36 C57.18 -1.66, 58.33 0.42, 58.38 1.19 M58.96 -0.54 C67.55 -0.5, 78.4 4.19, 85.7 9.58 C93 14.98, 99.14 23.67, 102.75 31.84 C106.36 40.01, 108.22 49.67, 107.37 58.59 C106.52 67.5, 102.8 78.02, 97.65 85.32 C92.5 92.62, 84.44 98.43, 76.45 102.4 C68.45 106.37, 58.7 109.73, 49.69 109.15 C40.68 108.58, 29.89 104.17, 22.4 98.93 C14.9 93.7, 8.19 85.85, 4.71 77.72 C1.22 69.59, 0.6 59.07, 1.51 50.18 C2.41 41.29, 5.47 31.81, 10.14 24.38 C14.82 16.94, 21.75 9.54, 29.55 5.56 C37.36 1.57, 52.32 1.29, 56.98 0.46 C61.64 -0.38, 57.28 -0.51, 57.52 0.55" stroke="#1971c2" stroke-width="2" fill="none"></path></g><g stroke-opacity="0.4" fill-opacity="0.4" stroke-linecap="round" transform="translate(378.3999938964844 62.79998779296875) rotate(0 12 12)"><path d="M9.9 0.03 C12.22 -0.47, 15.37 0.43, 17.67 1.78 C19.96 3.13, 22.74 5.78, 23.65 8.11 C24.57 10.45, 24.02 13.47, 23.15 15.78 C22.28 18.09, 20.56 20.63, 18.44 21.96 C16.32 23.29, 13.08 24.12, 10.43 23.74 C7.77 23.35, 4.35 21.66, 2.53 19.66 C0.72 17.65, -0.55 14.22, -0.46 11.72 C-0.37 9.22, 1.29 6.65, 3.09 4.68 C4.89 2.71, 8.96 0.67, 10.36 -0.08 C11.75 -0.83, 11.46 -0.02, 11.47 0.2 M12.7 -0.57 C15.17 -0.62, 17.98 1.95, 19.93 3.69 C21.88 5.42, 24.01 7.28, 24.42 9.84 C24.82 12.4, 23.81 16.8, 22.36 19.03 C20.9 21.27, 18.17 22.6, 15.68 23.25 C13.19 23.89, 9.82 23.84, 7.44 22.91 C5.07 21.97, 2.56 19.77, 1.42 17.63 C0.27 15.48, -0.06 12.44, 0.57 10.03 C1.21 7.61, 3.14 4.89, 5.21 3.14 C7.29 1.38, 11.91 0.03, 13 -0.49 C14.1 -1.02, 11.84 -0.34, 11.77 -0.02" stroke="none" stroke-width="0" fill="#ffc9c9"></path><path d="M14.34 0.08 C16.72 0.48, 19.7 2.64, 21.36 4.63 C23.02 6.63, 24.32 9.44, 24.29 12.03 C24.26 14.62, 22.88 18.25, 21.17 20.17 C19.46 22.1, 16.59 23.15, 14.03 23.57 C11.46 23.98, 8 23.94, 5.79 22.67 C3.58 21.4, 1.66 18.53, 0.79 15.93 C-0.08 13.34, -0.27 9.59, 0.58 7.1 C1.42 4.6, 3.56 2.09, 5.87 0.97 C8.18 -0.16, 12.98 0.4, 14.43 0.34 C15.88 0.27, 14.62 0.39, 14.58 0.6 M12.9 0.18 C15.45 0.27, 19.32 1.51, 21.23 3.28 C23.14 5.06, 24.21 8.19, 24.39 10.84 C24.56 13.48, 23.87 16.91, 22.29 19.15 C20.71 21.38, 17.54 23.6, 14.91 24.24 C12.27 24.88, 8.87 24.16, 6.48 23 C4.09 21.84, 1.65 19.68, 0.57 17.27 C-0.5 14.85, -0.75 10.95, 0.03 8.52 C0.8 6.09, 3.11 4.07, 5.22 2.69 C7.34 1.32, 11.44 0.62, 12.73 0.26 C14.02 -0.11, 12.77 0.3, 12.96 0.5" stroke="#e03131" stroke-width="2" fill="none"></path></g><g stroke-opacity="0.4" fill-opacity="0.4" stroke-linecap="round" transform="translate(470.4000244140625 18) rotate(0 54 54)"><path d="M70.08 2.83 C78.48 4.52, 86.55 10.65, 92.78 17.19 C99.01 23.73, 105.27 33.39, 107.46 42.05 C109.66 50.7, 108.87 60.7, 105.95 69.12 C103.02 77.54, 96.71 86.39, 89.94 92.57 C83.17 98.75, 73.91 104.08, 65.33 106.19 C56.75 108.31, 46.89 107.85, 38.45 105.25 C30 102.65, 20.78 97, 14.66 90.58 C8.53 84.16, 3.75 75.49, 1.69 66.72 C-0.37 57.96, -0.2 46.63, 2.28 37.97 C4.75 29.31, 9.86 20.95, 16.56 14.77 C23.26 8.58, 32.55 2.67, 42.48 0.88 C52.4 -0.9, 69.63 2.78, 76.13 4.03 C82.63 5.28, 81.91 7.35, 81.47 8.39 M46.3 -0.22 C54.5 -2.21, 64.5 0.21, 72.99 3.39 C81.48 6.57, 91.45 11.95, 97.24 18.86 C103.02 25.78, 106.44 35.59, 107.7 44.89 C108.96 54.18, 108.04 66.01, 104.82 74.64 C101.59 83.26, 95.25 91.36, 88.35 96.62 C81.45 101.89, 72.29 105.11, 63.4 106.22 C54.5 107.33, 43.47 106.4, 34.97 103.28 C26.46 100.16, 18.21 94.18, 12.38 87.5 C6.55 80.82, 1.25 71.84, -0.01 63.21 C-1.27 54.58, 1.58 44.33, 4.82 35.7 C8.06 27.08, 12.51 17.47, 19.46 11.44 C26.4 5.42, 41.93 1.23, 46.49 -0.44 C51.06 -2.11, 47.03 0.44, 46.83 1.44" stroke="#1971c2" stroke-width="2" fill="none"></path></g><g stroke-opacity="0.4" fill-opacity="0.4" stroke-linecap="round" transform="translate(512.0000305175781 60.399993896484375) rotate(0 12 12)"><path d="M10.61 0.43 C13.05 -0.04, 16.67 0.5, 18.81 1.84 C20.95 3.17, 22.84 5.86, 23.45 8.47 C24.06 11.07, 23.48 15.08, 22.46 17.46 C21.44 19.83, 19.64 21.67, 17.34 22.72 C15.05 23.77, 11.23 24.45, 8.69 23.77 C6.15 23.09, 3.54 20.75, 2.09 18.62 C0.64 16.49, -0.23 13.45, 0 10.98 C0.22 8.51, 1.42 5.71, 3.43 3.81 C5.45 1.92, 10.54 0.14, 12.08 -0.38 C13.62 -0.9, 12.64 0.47, 12.66 0.69 M12.45 -0.1 C14.73 -0.12, 18.02 1.37, 19.92 3.19 C21.82 5.01, 23.41 8.17, 23.85 10.83 C24.29 13.49, 23.84 16.94, 22.54 19.16 C21.25 21.37, 18.71 23.56, 16.1 24.11 C13.48 24.66, 9.35 23.54, 6.84 22.48 C4.34 21.42, 2.11 19.99, 1.06 17.75 C0.01 15.5, -0.01 11.63, 0.53 9.02 C1.08 6.4, 2.35 3.63, 4.35 2.04 C6.35 0.45, 11.25 -0.13, 12.55 -0.54 C13.85 -0.95, 12.2 -0.65, 12.14 -0.43" stroke="none" stroke-width="0" fill="#ffc9c9"></path><path d="M12.81 0.12 C15.29 0.18, 19.09 1.96, 20.97 3.73 C22.85 5.51, 24.04 8.29, 24.09 10.76 C24.14 13.22, 22.88 16.42, 21.29 18.53 C19.71 20.64, 16.96 22.73, 14.56 23.41 C12.16 24.1, 9.16 23.73, 6.92 22.63 C4.68 21.53, 2.18 19.1, 1.12 16.84 C0.06 14.57, -0.11 11.53, 0.56 9.05 C1.23 6.56, 3.04 3.42, 5.15 1.94 C7.26 0.46, 11.71 0.47, 13.22 0.17 C14.72 -0.14, 14.11 -0.04, 14.17 0.11 M14.97 0 C17.42 0.25, 20.03 2.09, 21.61 4.06 C23.18 6.04, 24.53 9.22, 24.41 11.85 C24.28 14.48, 22.51 17.94, 20.85 19.85 C19.19 21.76, 16.93 22.97, 14.44 23.32 C11.96 23.66, 8.2 23.08, 5.93 21.94 C3.66 20.8, 1.64 18.82, 0.82 16.5 C-0.01 14.17, 0.01 10.56, 0.99 7.97 C1.97 5.37, 4.45 2.29, 6.7 0.91 C8.95 -0.48, 13.21 -0.22, 14.5 -0.34 C15.8 -0.46, 14.6 -0.14, 14.48 0.21" stroke="#e03131" stroke-width="2" fill="none"></path></g><g stroke-opacity="0.4" fill-opacity="0.4" stroke-linecap="round" transform="translate(608.7999877929688 10) rotate(0 54 54)"><path d="M60.19 -0.51 C68.79 0.01, 79.24 5.58, 86.45 11.22 C93.65 16.86, 99.98 24.99, 103.43 33.34 C106.89 41.68, 108.21 52.36, 107.19 61.27 C106.16 70.18, 102.78 79.78, 97.3 86.8 C91.82 93.81, 82.67 99.78, 74.32 103.37 C65.96 106.96, 56.1 109.31, 47.15 108.32 C38.2 107.33, 27.88 102.89, 20.63 97.42 C13.38 91.95, 7.01 83.9, 3.66 75.51 C0.32 67.11, -0.82 56.15, 0.55 47.04 C1.93 37.93, 6.41 28.1, 11.92 20.85 C17.42 13.6, 23.75 6.67, 33.59 3.52 C43.43 0.37, 63.44 1.35, 70.94 1.95 C78.43 2.55, 78.78 6.28, 78.56 7.11 M62.08 0.74 C70.88 1.11, 80.56 6.42, 87.32 11.85 C94.09 17.28, 99.48 25.1, 102.66 33.3 C105.84 41.5, 107.45 52.26, 106.42 61.04 C105.39 69.81, 101.63 78.61, 96.5 85.94 C91.37 93.27, 83.69 101.5, 75.65 105.03 C67.61 108.55, 57.41 108.23, 48.25 107.07 C39.1 105.91, 28.26 103.2, 20.74 98.04 C13.22 92.88, 6.55 84.77, 3.12 76.13 C-0.32 67.49, -1.11 55.56, 0.12 46.21 C1.36 36.85, 5.24 26.81, 10.52 20 C15.81 13.18, 23.32 8.65, 31.84 5.31 C40.36 1.96, 56.93 0.45, 61.64 -0.1 C66.35 -0.64, 60.38 1.19, 60.09 2.05" stroke="#1971c2" stroke-width="2" fill="none"></path></g><g stroke-opacity="0.4" fill-opacity="0.4" stroke-linecap="round" transform="translate(650.3999938964844 52.399993896484375) rotate(0 12 12)"><path d="M9.44 0.07 C11.77 -0.63, 15.66 0.15, 17.91 1.39 C20.16 2.64, 22.01 5.17, 22.93 7.55 C23.85 9.94, 24.16 13.22, 23.44 15.71 C22.72 18.19, 20.86 21.11, 18.59 22.46 C16.32 23.82, 12.37 24.19, 9.84 23.83 C7.32 23.47, 5.13 22.22, 3.44 20.31 C1.75 18.41, -0.23 15.05, -0.28 12.41 C-0.34 9.77, 1.42 6.52, 3.09 4.47 C4.76 2.42, 8.59 0.8, 9.73 0.12 C10.87 -0.56, 9.89 0.14, 9.93 0.39 M14.48 -0.36 C16.72 -0.27, 18.82 1.78, 20.45 3.84 C22.08 5.89, 24.17 9.44, 24.27 11.98 C24.36 14.53, 22.75 17.16, 21.03 19.12 C19.31 21.08, 16.49 23.23, 13.93 23.72 C11.37 24.22, 7.96 23.36, 5.66 22.07 C3.36 20.78, 1.04 18.29, 0.13 15.99 C-0.78 13.68, -0.65 10.56, 0.22 8.23 C1.09 5.9, 3.07 3.24, 5.35 1.99 C7.64 0.73, 12.4 0.89, 13.94 0.69 C15.47 0.48, 14.71 0.7, 14.55 0.76" stroke="none" stroke-width="0" fill="#ffc9c9"></path><path d="M8.84 0.42 C11.2 -0.25, 14.66 0.08, 16.98 1.21 C19.3 2.34, 21.63 4.86, 22.76 7.19 C23.89 9.53, 24.46 12.81, 23.77 15.22 C23.07 17.64, 20.72 20.14, 18.57 21.66 C16.42 23.18, 13.46 24.49, 10.89 24.33 C8.32 24.16, 5 22.5, 3.15 20.66 C1.3 18.82, -0.06 15.91, -0.2 13.3 C-0.34 10.7, 0.64 7.21, 2.3 5.02 C3.96 2.82, 8.5 0.94, 9.77 0.13 C11.04 -0.68, 9.9 -0.02, 9.92 0.15 M10.86 0.2 C13.26 -0.15, 16.7 1.08, 18.95 2.63 C21.21 4.18, 23.7 6.95, 24.37 9.49 C25.05 12.04, 24.4 15.64, 23.03 17.92 C21.65 20.2, 18.63 22.24, 16.1 23.19 C13.58 24.14, 10.29 24.45, 7.88 23.61 C5.47 22.78, 2.89 20.24, 1.65 18.16 C0.41 16.08, -0.01 13.67, 0.44 11.13 C0.89 8.59, 2.56 4.71, 4.34 2.94 C6.11 1.18, 10 0.87, 11.09 0.52 C12.18 0.17, 10.83 0.81, 10.86 0.84" stroke="#e03131" stroke-width="2" fill="none"></path></g><g stroke-opacity="0.4" fill-opacity="0.4" stroke-linecap="round" transform="translate(18 185.5999755859375) rotate(0 54 54)"><path d="M44.37 0.47 C52.52 -1.86, 63.16 0.32, 71.76 3.34 C80.37 6.36, 90.01 11.82, 96 18.59 C101.99 25.36, 106.09 34.98, 107.69 43.94 C109.29 52.9, 108.75 63.68, 105.62 72.36 C102.49 81.04, 95.97 90.16, 88.91 96.01 C81.86 101.86, 72.24 105.88, 63.28 107.44 C54.31 109, 43.65 108.49, 35.13 105.36 C26.61 102.24, 17.91 95.5, 12.18 88.68 C6.45 81.86, 2.36 73.25, 0.74 64.47 C-0.88 55.68, -0.55 44.56, 2.45 35.99 C5.45 27.41, 10.78 18.96, 18.72 13.03 C26.67 7.1, 44.16 2.31, 50.14 0.42 C56.11 -1.47, 54.77 0.78, 54.57 1.67 M32.99 4.66 C40.78 0.98, 53.73 0.49, 62.67 1.5 C71.62 2.52, 79.6 5.57, 86.66 10.75 C93.72 15.93, 101.37 24.17, 105.04 32.56 C108.71 40.96, 110.24 52.09, 108.66 61.12 C107.08 70.14, 101.51 79.77, 95.56 86.72 C89.6 93.67, 80.93 99.21, 72.94 102.83 C64.96 106.44, 56.43 109.51, 47.66 108.39 C38.89 107.27, 27.5 101.81, 20.32 96.1 C13.13 90.39, 7.95 82.42, 4.53 74.14 C1.11 65.86, -1.37 55.36, -0.2 46.43 C0.98 37.49, 5.76 27.49, 11.56 20.52 C17.37 13.56, 31.08 7.27, 34.64 4.66 C38.2 2.05, 32.55 3.96, 32.94 4.86" stroke="#1971c2" stroke-width="2" fill="none"></path></g><g stroke-opacity="0.4" fill-opacity="0.4" stroke-linecap="round" transform="translate(59.600006103515625 227.99996948242188) rotate(0 12 12)"><path d="M12.59 -0.38 C15.05 -0.44, 18.01 1.75, 19.95 3.47 C21.89 5.2, 23.84 7.43, 24.24 9.98 C24.63 12.54, 23.73 16.57, 22.31 18.79 C20.89 21.01, 18.18 22.6, 15.71 23.3 C13.24 24, 9.86 23.93, 7.48 22.99 C5.1 22.05, 2.59 19.83, 1.42 17.65 C0.25 15.46, -0.13 12.32, 0.47 9.87 C1.06 7.42, 2.88 4.65, 5 2.95 C7.11 1.25, 11.88 0.16, 13.17 -0.31 C14.45 -0.78, 12.76 -0.16, 12.7 0.12 M10.68 -0.49 C13.09 -0.95, 16.17 -0.1, 18.25 1.36 C20.33 2.82, 22.38 5.75, 23.18 8.26 C23.98 10.77, 24.01 13.99, 23.07 16.43 C22.13 18.87, 19.76 21.55, 17.53 22.87 C15.29 24.2, 12.13 25.14, 9.66 24.4 C7.18 23.66, 4.33 20.67, 2.68 18.43 C1.04 16.18, -0.34 13.52, -0.22 10.95 C-0.09 8.38, 1.65 4.89, 3.46 3.03 C5.27 1.18, 9.41 0.22, 10.65 -0.16 C11.9 -0.54, 10.92 0.46, 10.92 0.76" stroke="none" stroke-width="0" fill="#ffc9c9"></path><path d="M13.03 0.15 C15.54 0.24, 19.17 1.61, 21.04 3.42 C22.91 5.22, 24.07 8.34, 24.25 10.96 C24.42 13.57, 23.65 16.94, 22.09 19.12 C20.53 21.3, 17.49 23.41, 14.9 24.04 C12.31 24.68, 8.92 24.08, 6.56 22.92 C4.2 21.77, 1.79 19.52, 0.72 17.13 C-0.34 14.74, -0.58 11.01, 0.17 8.57 C0.93 6.13, 3.05 3.86, 5.25 2.47 C7.45 1.09, 11.93 0.57, 13.38 0.25 C14.83 -0.06, 13.86 0.37, 13.97 0.57 M13.52 -0.5 C15.92 -0.32, 19.2 1.48, 20.88 3.5 C22.57 5.53, 23.41 8.96, 23.64 11.65 C23.87 14.35, 23.77 17.71, 22.25 19.66 C20.73 21.62, 17.03 22.94, 14.51 23.36 C11.99 23.78, 9.27 23.29, 7.12 22.16 C4.96 21.04, 2.76 18.9, 1.57 16.6 C0.38 14.29, -0.55 10.87, -0.02 8.33 C0.5 5.79, 2.39 2.67, 4.72 1.37 C7.05 0.07, 12.54 0.75, 13.93 0.53 C15.33 0.31, 13.18 -0.05, 13.11 0.06" stroke="#e03131" stroke-width="2" fill="none"></path></g><g stroke-opacity="0.4" fill-opacity="0.4" stroke-linecap="round" transform="translate(173.20001220703125 177.5999755859375) rotate(0 54 54)"><path d="M68.77 2.07 C77.41 3.45, 87.16 9.67, 93.48 16.01 C99.79 22.35, 104.47 31.44, 106.64 40.11 C108.81 48.79, 109.04 59.33, 106.52 68.08 C103.99 76.82, 97.87 86.32, 91.47 92.57 C85.08 98.83, 76.8 103.44, 68.15 105.61 C59.51 107.77, 48.34 107.74, 39.58 105.57 C30.81 103.4, 21.85 98.87, 15.57 92.57 C9.28 86.27, 4.03 76.74, 1.87 67.75 C-0.29 58.75, 0.18 47.46, 2.62 38.59 C5.06 29.72, 10.11 20.75, 16.5 14.54 C22.88 8.32, 31.64 3.1, 40.92 1.3 C50.2 -0.49, 66.17 2.9, 72.16 3.77 C78.15 4.65, 77.13 5.84, 76.84 6.53 M71.54 1.98 C79.98 3.64, 88.77 10.22, 94.49 17.4 C100.21 24.58, 103.96 36.06, 105.86 45.04 C107.75 54.03, 108.73 62.92, 105.87 71.33 C103.01 79.73, 95.71 89.66, 88.7 95.49 C81.7 101.33, 72.63 104.74, 63.85 106.35 C55.07 107.96, 44.52 107.84, 36 105.15 C27.48 102.45, 18.48 97.22, 12.75 90.18 C7.03 83.14, 3.27 71.67, 1.63 62.89 C-0.01 54.1, -0.11 45.89, 2.93 37.45 C5.97 29, 12.98 18.04, 19.87 12.2 C26.76 6.36, 35.63 3.97, 44.27 2.39 C52.9 0.82, 67.18 2.54, 71.67 2.74 C76.17 2.94, 71.52 2.69, 71.25 3.57" stroke="#1971c2" stroke-width="2" fill="none"></path></g><g stroke-opacity="0.4" fill-opacity="0.4" stroke-linecap="round" transform="translate(214.80001831054688 219.99996948242188) rotate(0 12 12)"><path d="M12.5 -0.06 C14.84 -0.09, 18.1 1.39, 20 3.19 C21.89 4.99, 23.47 8.09, 23.87 10.72 C24.27 13.34, 23.72 16.74, 22.39 18.94 C21.06 21.14, 18.47 23.27, 15.91 23.9 C13.35 24.52, 9.47 23.71, 7.01 22.67 C4.55 21.63, 2.24 19.92, 1.15 17.66 C0.06 15.4, -0.1 11.7, 0.46 9.12 C1.01 6.54, 2.4 3.75, 4.48 2.17 C6.56 0.6, 11.51 0.05, 12.93 -0.33 C14.35 -0.72, 13.05 -0.36, 13.01 -0.14 M12.5 0.55 C15.14 0.5, 18.98 1.87, 20.77 3.46 C22.56 5.04, 23.04 7.57, 23.24 10.07 C23.44 12.57, 23.31 16.24, 21.95 18.45 C20.59 20.66, 17.52 22.53, 15.08 23.33 C12.63 24.14, 9.49 24.28, 7.29 23.3 C5.09 22.32, 2.97 19.79, 1.87 17.46 C0.76 15.12, 0.1 11.77, 0.66 9.29 C1.22 6.8, 3.28 4.03, 5.24 2.53 C7.2 1.04, 11.37 0.59, 12.44 0.3 C13.51 0.02, 11.74 0.66, 11.66 0.82" stroke="none" stroke-width="0" fill="#ffc9c9"></path><path d="M14.77 0.08 C17.21 0.36, 19.95 2.23, 21.53 4.21 C23.12 6.2, 24.37 9.39, 24.27 12 C24.16 14.61, 22.57 17.97, 20.9 19.88 C19.23 21.8, 16.73 23.14, 14.23 23.5 C11.72 23.86, 8.11 23.24, 5.87 22.04 C3.62 20.84, 1.57 18.64, 0.75 16.27 C-0.07 13.91, -0.03 10.38, 0.93 7.85 C1.9 5.32, 4.24 2.41, 6.55 1.09 C8.87 -0.23, 13.41 0.04, 14.85 -0.06 C16.29 -0.17, 15.28 0.18, 15.18 0.47 M14.18 0.77 C16.43 1.27, 19.29 3.35, 20.9 5.2 C22.51 7.05, 23.88 9.54, 23.84 11.89 C23.81 14.25, 22.49 17.25, 20.69 19.34 C18.9 21.43, 15.5 23.99, 13.07 24.42 C10.63 24.85, 8.21 23.32, 6.09 21.92 C3.97 20.51, 1.21 18.45, 0.33 15.98 C-0.56 13.52, -0.21 9.56, 0.78 7.15 C1.78 4.73, 4.03 2.56, 6.29 1.49 C8.55 0.43, 12.93 1, 14.34 0.74 C15.76 0.48, 14.82 -0.3, 14.79 -0.07" stroke="#e03131" stroke-width="2" fill="none"></path></g><g stroke-opacity="0.4" fill-opacity="0.4" stroke-linecap="round" transform="translate(341.20001220703125 176) rotate(0 54 54)"><path d="M68.45 2.88 C76.87 4.51, 85.63 10.17, 91.88 16.5 C98.12 22.83, 103.41 32.16, 105.92 40.87 C108.42 49.58, 109.18 60.05, 106.9 68.77 C104.61 77.49, 98.93 86.91, 92.22 93.2 C85.51 99.48, 75.57 104.32, 66.65 106.48 C57.72 108.65, 47.27 108.73, 38.66 106.2 C30.06 103.67, 21.12 97.62, 15.03 91.29 C8.95 84.96, 4.21 76.93, 2.15 68.23 C0.09 59.53, 0.38 47.79, 2.66 39.1 C4.94 30.4, 9.62 22.17, 15.83 16.06 C22.03 9.96, 30.58 4.76, 39.87 2.47 C49.16 0.17, 65.83 1.99, 71.54 2.29 C77.25 2.59, 74.53 3.18, 74.14 4.26 M70.54 2.24 C78.91 4.08, 86.87 10.58, 92.92 17.17 C98.97 23.75, 104.57 32.82, 106.84 41.74 C109.11 50.66, 109.43 62.04, 106.54 70.67 C103.66 79.3, 96.08 87.35, 89.53 93.53 C82.98 99.7, 75.97 105.69, 67.24 107.75 C58.51 109.8, 45.72 108.75, 37.15 105.88 C28.58 103, 21.84 97.2, 15.82 90.51 C9.8 83.81, 3.36 74.46, 1.04 65.71 C-1.27 56.96, -0.76 46.44, 1.94 37.99 C4.63 29.54, 10.36 20.91, 17.2 15.01 C24.04 9.12, 33.99 4.52, 42.98 2.64 C51.96 0.75, 66.81 3.77, 71.1 3.71 C75.38 3.65, 69.21 1.56, 68.67 2.29" stroke="#1971c2" stroke-width="2" fill="none"></path></g><g stroke-opacity="0.4" fill-opacity="0.4" stroke-linecap="round" transform="translate(382.8000183105469 218.39999389648438) rotate(0 12 12)"><path d="M14.27 -0.19 C16.57 -0.06, 18.99 1.91, 20.64 3.92 C22.3 5.94, 24.09 9.35, 24.18 11.91 C24.26 14.46, 22.82 17.28, 21.14 19.25 C19.45 21.23, 16.61 23.25, 14.06 23.74 C11.52 24.23, 8.13 23.49, 5.84 22.22 C3.56 20.94, 1.27 18.44, 0.36 16.1 C-0.56 13.77, -0.49 10.56, 0.36 8.2 C1.22 5.83, 3.15 3.17, 5.5 1.9 C7.85 0.64, 12.81 0.78, 14.46 0.6 C16.11 0.43, 15.51 0.75, 15.39 0.86 M11.01 -0.19 C13.44 -0.35, 17.08 1.1, 19.15 2.7 C21.22 4.3, 22.86 6.89, 23.43 9.42 C24.01 11.94, 23.67 15.57, 22.59 17.83 C21.51 20.08, 19.19 22.13, 16.94 22.96 C14.68 23.8, 11.44 23.59, 9.07 22.82 C6.69 22.05, 4.16 20.46, 2.67 18.35 C1.19 16.23, -0.11 12.59, 0.13 10.12 C0.38 7.66, 2.4 5.13, 4.16 3.55 C5.92 1.97, 9.57 1.28, 10.71 0.63 C11.86 -0.03, 11.05 -0.59, 11.03 -0.39" stroke="none" stroke-width="0" fill="#ffc9c9"></path><path d="M11.04 0.14 C13.45 -0.19, 16.87 1.02, 19.05 2.57 C21.24 4.12, 23.51 6.91, 24.15 9.44 C24.79 11.98, 24.22 15.49, 22.91 17.77 C21.6 20.06, 18.76 22.18, 16.29 23.15 C13.81 24.11, 10.49 24.38, 8.07 23.56 C5.65 22.75, 3.03 20.38, 1.74 18.28 C0.45 16.17, -0.08 13.46, 0.33 10.92 C0.73 8.38, 2.3 4.79, 4.17 3.03 C6.04 1.27, 10.29 0.74, 11.55 0.34 C12.81 -0.06, 11.71 0.55, 11.74 0.63 M11.65 0.48 C14.14 0.21, 16.71 0.59, 18.75 2 C20.8 3.41, 23.29 6.43, 23.91 8.95 C24.53 11.48, 23.6 14.83, 22.45 17.13 C21.31 19.44, 19.22 21.66, 17.02 22.79 C14.81 23.91, 11.81 24.58, 9.22 23.89 C6.64 23.21, 2.93 20.79, 1.51 18.7 C0.09 16.61, 0.42 13.87, 0.7 11.34 C0.99 8.82, 1.34 5.45, 3.19 3.55 C5.05 1.65, 10.54 0.51, 11.84 -0.05 C13.13 -0.62, 11.13 -0.06, 10.98 0.15" stroke="#e03131" stroke-width="2" fill="none"></path></g><g stroke-opacity="0.4" fill-opacity="0.4" stroke-linecap="round" transform="translate(486.79998779296875 181.5999755859375) rotate(0 54 54)"><path d="M78.04 4.62 C86.07 7.43, 93.8 15.33, 98.8 22.83 C103.8 30.33, 107.49 40.45, 108.05 49.63 C108.61 58.81, 105.99 69.64, 102.18 77.92 C98.38 86.19, 92.66 94.37, 85.24 99.29 C77.82 104.21, 66.68 106.99, 57.67 107.43 C48.67 107.86, 39.14 105.77, 31.22 101.9 C23.3 98.03, 15.45 91.56, 10.15 84.2 C4.85 76.84, 0.4 66.79, -0.56 57.71 C-1.51 48.64, 0.29 37.7, 4.44 29.75 C8.58 21.79, 16.78 14.96, 24.32 9.97 C31.85 4.98, 39.9 0.14, 49.64 -0.19 C59.39 -0.53, 76.75 5.92, 82.8 7.97 C88.85 10.01, 86.46 11.32, 85.95 12.07 M70.91 4.04 C79.33 6.04, 89.4 10.51, 95.44 17.26 C101.49 24.01, 105.58 35.65, 107.19 44.56 C108.79 53.47, 108 62.5, 105.08 70.72 C102.16 78.94, 96.34 87.87, 89.64 93.88 C82.94 99.88, 73.53 104.72, 64.86 106.77 C56.19 108.82, 45.95 108.8, 37.63 106.17 C29.31 103.54, 20.81 98.03, 14.94 90.99 C9.07 83.94, 4.63 72.98, 2.4 63.89 C0.18 54.8, -1.12 44.76, 1.59 36.46 C4.3 28.16, 11.85 20.13, 18.66 14.11 C25.47 8.08, 33.88 2.21, 42.47 0.3 C51.07 -1.61, 65.71 2.23, 70.22 2.66 C74.74 3.09, 69.94 2.13, 69.56 2.88" stroke="#1971c2" stroke-width="2" fill="none"></path></g><g stroke-opacity="0.4" fill-opacity="0.4" stroke-linecap="round" transform="translate(528.3999938964844 223.99996948242188) rotate(0 12 12)"><path d="M10.7 -0.3 C13.11 -0.75, 16.3 0.14, 18.4 1.59 C20.5 3.04, 22.52 5.9, 23.3 8.4 C24.07 10.89, 24.01 14.17, 23.04 16.58 C22.06 18.98, 19.7 21.58, 17.44 22.84 C15.18 24.1, 11.96 24.85, 9.48 24.15 C7 23.45, 4.16 20.83, 2.56 18.64 C0.96 16.45, -0.28 13.59, -0.13 11.03 C0.01 8.46, 1.52 5.11, 3.42 3.25 C5.33 1.39, 9.86 0.32, 11.3 -0.13 C12.75 -0.58, 12.09 0.28, 12.09 0.54 M11.11 0.33 C13.3 0.09, 16.23 1.36, 18.24 2.82 C20.26 4.28, 22.54 6.6, 23.19 9.09 C23.84 11.57, 23.14 15.49, 22.12 17.73 C21.1 19.98, 19.21 21.6, 17.09 22.56 C14.96 23.52, 11.98 24.22, 9.37 23.49 C6.76 22.76, 2.89 20.22, 1.44 18.2 C-0.01 16.19, 0.38 13.74, 0.67 11.38 C0.96 9.02, 1.48 6.03, 3.17 4.02 C4.85 2.02, 9.51 0.01, 10.78 -0.66 C12.05 -1.32, 10.67 -0.2, 10.78 0.02" stroke="none" stroke-width="0" fill="#ffc9c9"></path><path d="M13.48 -0.3 C15.89 -0.14, 19.12 1.62, 20.83 3.59 C22.54 5.56, 23.55 8.89, 23.75 11.54 C23.95 14.19, 23.57 17.51, 22.04 19.5 C20.52 21.49, 17.11 22.99, 14.59 23.47 C12.08 23.94, 9.15 23.49, 6.95 22.35 C4.74 21.21, 2.5 18.97, 1.37 16.65 C0.24 14.33, -0.44 10.92, 0.15 8.41 C0.75 5.89, 2.57 2.89, 4.95 1.57 C7.33 0.25, 12.85 0.68, 14.44 0.48 C16.04 0.29, 14.6 0.25, 14.54 0.39 M10.43 0.56 C12.91 0.01, 16.75 -0.05, 18.92 1.39 C21.09 2.83, 22.66 6.7, 23.44 9.18 C24.21 11.67, 24.55 13.93, 23.57 16.3 C22.59 18.68, 19.95 22.24, 17.55 23.44 C15.15 24.65, 11.71 24.28, 9.17 23.53 C6.62 22.78, 3.8 20.98, 2.27 18.94 C0.74 16.89, -0.21 13.71, 0.01 11.26 C0.22 8.81, 1.71 6.01, 3.58 4.24 C5.45 2.47, 9.96 1.38, 11.24 0.64 C12.52 -0.1, 11.44 -0.24, 11.26 -0.18" stroke="#e03131" stroke-width="2" fill="none"></path></g><g stroke-opacity="0.4" fill-opacity="0.4" stroke-linecap="round" transform="translate(616.3999633789062 171.19998168945312) rotate(0 54 54)"><path d="M42.42 1.07 C50.42 -1.66, 60.89 0.2, 69.27 3 C77.65 5.81, 86.5 11.54, 92.68 17.88 C98.87 24.22, 104.28 32.57, 106.39 41.05 C108.51 49.54, 108.09 59.93, 105.37 68.78 C102.66 77.62, 96.52 87.9, 90.1 94.14 C83.67 100.39, 75.53 104.27, 66.84 106.25 C58.15 108.23, 46.69 108.68, 37.96 106.04 C29.23 103.4, 20.56 97.04, 14.45 90.43 C8.34 83.81, 3.36 74.94, 1.3 66.36 C-0.75 57.78, -0.59 47.7, 2.12 38.95 C4.83 30.19, 10.24 20.06, 17.56 13.81 C24.88 7.56, 40.41 3.64, 46.03 1.44 C51.65 -0.76, 51.11 -0.29, 51.28 0.62 M50.46 0.06 C58.99 -1.05, 69.93 2.16, 78.2 6.43 C86.47 10.7, 94.95 18.07, 100.09 25.7 C105.23 33.33, 108.84 43.66, 109.02 52.24 C109.21 60.82, 105.54 69.24, 101.22 77.15 C96.89 85.06, 90.36 94.68, 83.08 99.7 C75.79 104.72, 66.55 106.99, 57.52 107.28 C48.48 107.56, 37.01 105.56, 28.88 101.43 C20.75 97.29, 13.69 90.11, 8.74 82.49 C3.79 74.86, -0.2 64.63, -0.81 55.69 C-1.41 46.75, 0.85 36.8, 5.08 28.85 C9.32 20.9, 16.87 12.73, 24.6 7.97 C32.33 3.2, 46.87 1.16, 51.45 0.28 C56.04 -0.6, 52 2.01, 52.1 2.66" stroke="#1971c2" stroke-width="2" fill="none"></path></g><g stroke-opacity="0.4" fill-opacity="0.4" stroke-linecap="round" transform="translate(657.9999694824219 213.5999755859375) rotate(0 12 12)"><path d="M12.47 0.37 C15.05 0.31, 18.69 1.7, 20.52 3.33 C22.35 4.96, 23.2 7.64, 23.45 10.15 C23.71 12.67, 23.39 16.21, 22.03 18.42 C20.67 20.62, 17.74 22.55, 15.29 23.36 C12.85 24.16, 9.63 24.22, 7.37 23.24 C5.1 22.27, 2.86 19.83, 1.72 17.52 C0.58 15.21, -0.03 11.86, 0.52 9.36 C1.08 6.87, 2.99 4.06, 5.03 2.54 C7.06 1.02, 11.48 0.53, 12.72 0.22 C13.96 -0.09, 12.54 0.49, 12.48 0.66 M8.84 0.92 C11.08 0.07, 15.03 -0.55, 17.3 0.6 C19.56 1.75, 21.3 5.44, 22.43 7.84 C23.56 10.24, 24.59 12.67, 24.05 14.99 C23.51 17.3, 21.56 20.28, 19.21 21.72 C16.86 23.16, 12.63 23.8, 9.94 23.61 C7.24 23.42, 4.78 22.34, 3.04 20.58 C1.29 18.82, -0.46 15.61, -0.55 13.04 C-0.63 10.47, 0.79 7.26, 2.53 5.16 C4.27 3.05, 8.7 1.23, 9.92 0.4 C11.14 -0.44, 9.88 0.09, 9.85 0.15" stroke="none" stroke-width="0" fill="#ffc9c9"></path><path d="M14.29 0.6 C16.59 1.05, 19.49 3.09, 21.09 5.01 C22.69 6.92, 23.95 9.64, 23.89 12.07 C23.84 14.5, 22.54 17.54, 20.77 19.57 C19 21.6, 15.74 23.84, 13.27 24.24 C10.79 24.65, 8.08 23.39, 5.94 22 C3.8 20.61, 1.27 18.35, 0.41 15.89 C-0.44 13.44, -0.17 9.67, 0.81 7.27 C1.8 4.86, 3.97 2.56, 6.32 1.46 C8.66 0.37, 13.32 0.88, 14.87 0.69 C16.42 0.51, 15.64 0.14, 15.6 0.35 M14.88 0.11 C17.36 0.35, 19.61 2.23, 21.09 4.23 C22.57 6.22, 23.76 9.42, 23.76 12.06 C23.76 14.71, 22.63 18.02, 21.09 20.09 C19.54 22.16, 16.9 24, 14.47 24.48 C12.04 24.96, 8.87 24.5, 6.49 23 C4.11 21.5, 1.2 17.94, 0.2 15.45 C-0.8 12.97, -0.53 10.46, 0.49 8.09 C1.5 5.73, 4.09 2.63, 6.3 1.25 C8.51 -0.13, 12.46 0.03, 13.75 -0.2 C15.05 -0.43, 14.11 -0.27, 14.07 -0.13" stroke="#e03131" stroke-width="2" fill="none"></path></g><g stroke-opacity="0.4" fill-opacity="0.4" stroke-linecap="round" transform="translate(10 350.3999938964844) rotate(0 54 54)"><path d="M47.7 -0.53 C56.37 -2.01, 68.63 1.6, 76.92 5.38 C85.22 9.16, 92.3 14.95, 97.5 22.13 C102.7 29.32, 107.23 39.51, 108.1 48.5 C108.98 57.5, 106.49 67.91, 102.75 76.1 C99.01 84.29, 92.76 92.29, 85.64 97.64 C78.52 102.98, 69.12 107.27, 60.02 108.19 C50.92 109.11, 39.2 106.81, 31.03 103.15 C22.86 99.49, 16.24 93.51, 11.02 86.25 C5.79 78.98, 0.57 68.67, -0.31 59.58 C-1.19 50.48, 1.98 39.94, 5.75 31.68 C9.51 23.42, 14.16 15.28, 22.28 10 C30.4 4.72, 48.05 1.33, 54.45 -0.01 C60.85 -1.35, 60.55 0.9, 60.7 1.95 M72.38 3.14 C80.51 5.75, 90.91 13.68, 96.63 20.64 C102.36 27.61, 105.58 36.15, 106.73 44.95 C107.88 53.75, 106.89 65.08, 103.55 73.45 C100.21 81.83, 93.82 89.67, 86.71 95.2 C79.6 100.74, 69.73 105.11, 60.88 106.67 C52.03 108.22, 41.93 107.6, 33.62 104.54 C25.31 101.48, 16.5 95.2, 11.04 88.33 C5.57 81.46, 1.81 72.18, 0.83 63.33 C-0.15 54.48, 2.15 43.87, 5.16 35.22 C8.17 26.57, 12.2 17.15, 18.89 11.42 C25.58 5.69, 36.4 2.15, 45.3 0.84 C54.19 -0.48, 67.69 2.82, 72.26 3.51 C76.83 4.21, 72.66 4.2, 72.7 5" stroke="#1971c2" stroke-width="2" fill="none"></path></g><g stroke-opacity="0.4" fill-opacity="0.4" stroke-linecap="round" transform="translate(51.600006103515625 392.79998779296875) rotate(0 12 12)"><path d="M11.03 -0.12 C13.46 -0.33, 17.02 0.98, 19.1 2.55 C21.18 4.11, 22.9 6.77, 23.5 9.28 C24.09 11.79, 23.76 15.33, 22.67 17.61 C21.57 19.89, 19.23 22.04, 16.94 22.95 C14.66 23.86, 11.38 23.81, 8.97 23.06 C6.56 22.32, 3.96 20.61, 2.48 18.49 C1.01 16.37, -0.14 12.85, 0.11 10.36 C0.36 7.86, 2.14 5.17, 3.97 3.51 C5.81 1.85, 9.85 1.03, 11.13 0.41 C12.41 -0.21, 11.64 -0.4, 11.63 -0.2 M13.88 -0.5 C16.33 -0.34, 19.2 2.1, 20.94 4.11 C22.68 6.11, 24.24 8.88, 24.33 11.52 C24.41 14.16, 23.13 17.78, 21.45 19.95 C19.78 22.12, 16.87 24.04, 14.3 24.54 C11.72 25.03, 8.32 24.31, 5.99 22.93 C3.65 21.54, 1.27 18.71, 0.28 16.25 C-0.71 13.8, -0.84 10.54, 0.04 8.21 C0.93 5.88, 3.35 3.51, 5.59 2.25 C7.84 1, 12 0.9, 13.5 0.69 C15.01 0.48, 14.52 0.97, 14.64 0.99" stroke="none" stroke-width="0" fill="#ffc9c9"></path><path d="M11.47 0.33 C13.94 0.04, 16.78 0.65, 18.84 2.09 C20.9 3.53, 23.19 6.47, 23.82 8.98 C24.44 11.5, 23.71 14.85, 22.57 17.16 C21.43 19.47, 19.24 21.73, 16.99 22.84 C14.74 23.94, 11.61 24.47, 9.06 23.78 C6.52 23.09, 3.13 20.82, 1.7 18.72 C0.27 16.62, 0.22 13.7, 0.49 11.16 C0.76 8.62, 1.44 5.37, 3.34 3.5 C5.23 1.64, 10.5 0.52, 11.87 -0.04 C13.24 -0.6, 11.67 -0.04, 11.57 0.17 M12.41 0.56 C14.91 0.2, 18.38 0.68, 20.18 2.16 C21.97 3.64, 22.76 6.78, 23.19 9.42 C23.63 12.07, 23.97 15.8, 22.78 18.03 C21.58 20.25, 18.52 21.91, 16.01 22.79 C13.5 23.67, 10.2 24.15, 7.72 23.31 C5.25 22.47, 2.55 20.01, 1.17 17.76 C-0.21 15.51, -0.96 12.25, -0.54 9.8 C-0.12 7.35, 1.71 4.65, 3.69 3.06 C5.67 1.47, 9.97 0.63, 11.33 0.25 C12.69 -0.12, 11.66 0.56, 11.86 0.79" stroke="#e03131" stroke-width="2" fill="none"></path></g><g stroke-opacity="0.4" fill-opacity="0.4" stroke-linecap="round" transform="translate(174.79998779296875 339.1999816894531) rotate(0 54 54)"><path d="M63.89 1.05 C72.43 2.06, 82.06 7.97, 88.98 13.68 C95.91 19.4, 102.41 26.83, 105.42 35.36 C108.42 43.89, 108.62 55.98, 107 64.86 C105.37 73.73, 101.5 81.77, 95.68 88.62 C89.86 95.46, 80.7 102.88, 72.07 105.92 C63.44 108.97, 52.79 108.75, 43.89 106.87 C34.99 104.99, 25.46 100.48, 18.65 94.64 C11.84 88.79, 5.91 80.13, 3.03 71.8 C0.15 63.46, -0.45 53.33, 1.36 44.62 C3.18 35.91, 7.97 26.59, 13.91 19.55 C19.85 12.51, 28.16 5.4, 36.99 2.38 C45.81 -0.65, 61.15 1.1, 66.85 1.4 C72.55 1.69, 71.37 3.3, 71.2 4.14 M39.05 0.5 C47 -2.43, 58.32 -1.42, 67.2 0.98 C76.07 3.38, 85.75 8.36, 92.33 14.89 C98.9 21.42, 104.15 31.05, 106.64 40.14 C109.13 49.22, 109.54 60.95, 107.27 69.4 C105 77.85, 99.62 84.79, 93.01 90.84 C86.39 96.89, 76.35 103.34, 67.57 105.68 C58.78 108.02, 48.95 107.21, 40.31 104.9 C31.67 102.58, 22.08 97.77, 15.73 91.79 C9.37 85.8, 4.57 77.45, 2.19 68.97 C-0.19 60.49, -0.74 49.54, 1.44 40.9 C3.62 32.26, 8.88 23.65, 15.29 17.15 C21.71 10.66, 35.65 4.55, 39.91 1.93 C44.16 -0.69, 40.38 0.71, 40.82 1.43" stroke="#1971c2" stroke-width="2" fill="none"></path></g><g stroke-opacity="0.4" fill-opacity="0.4" stroke-linecap="round" transform="translate(216.39999389648438 381.5999755859375) rotate(0 12 12)"><path d="M11.1 0.23 C13.37 -0.04, 16.45 1.15, 18.49 2.62 C20.53 4.1, 22.69 6.57, 23.33 9.06 C23.98 11.55, 23.4 15.28, 22.36 17.55 C21.31 19.82, 19.24 21.69, 17.05 22.68 C14.85 23.67, 11.74 24.23, 9.17 23.51 C6.61 22.8, 3.11 20.45, 1.66 18.4 C0.21 16.35, 0.19 13.63, 0.47 11.2 C0.74 8.77, 1.49 5.77, 3.31 3.83 C5.14 1.88, 9.99 0.17, 11.43 -0.46 C12.87 -1.08, 11.89 -0.14, 11.96 0.07 M13.99 0.14 C16.5 0.13, 19.53 1.55, 21.23 3.27 C22.93 5, 24.06 7.92, 24.21 10.48 C24.35 13.03, 23.53 16.5, 22.09 18.59 C20.65 20.67, 18.05 22.2, 15.57 22.98 C13.08 23.76, 9.53 24.26, 7.2 23.29 C4.87 22.31, 2.8 19.61, 1.58 17.15 C0.36 14.7, -0.65 11.04, -0.13 8.57 C0.39 6.1, 2.44 3.72, 4.7 2.32 C6.95 0.93, 11.96 0.43, 13.4 0.2 C14.83 -0.03, 13.29 0.68, 13.3 0.94" stroke="none" stroke-width="0" fill="#ffc9c9"></path><path d="M10.48 0.4 C12.94 -0.11, 16.65 0.15, 18.81 1.58 C20.97 3.01, 22.69 6.49, 23.45 8.97 C24.22 11.45, 24.38 14.08, 23.39 16.45 C22.4 18.82, 19.87 22.01, 17.5 23.2 C15.14 24.39, 11.73 24.28, 9.2 23.58 C6.66 22.89, 3.84 21.07, 2.31 19.02 C0.78 16.97, -0.18 13.77, 0.01 11.28 C0.2 8.79, 1.56 5.9, 3.47 4.09 C5.39 2.27, 10.09 1.1, 11.51 0.41 C12.93 -0.29, 12.13 -0.19, 12 -0.08 M12.67 -0.35 C15.07 -0.32, 18.65 1.2, 20.45 2.97 C22.26 4.75, 23.34 7.71, 23.51 10.3 C23.68 12.88, 22.85 16.34, 21.47 18.48 C20.08 20.63, 17.57 22.42, 15.18 23.16 C12.8 23.91, 9.41 23.86, 7.16 22.96 C4.91 22.07, 2.72 20.26, 1.66 17.8 C0.6 15.34, 0.26 10.87, 0.8 8.23 C1.34 5.58, 2.83 3.4, 4.89 1.93 C6.95 0.46, 11.82 -0.28, 13.17 -0.59 C14.52 -0.91, 12.98 -0.32, 12.97 0.06" stroke="#e03131" stroke-width="2" fill="none"></path></g><g stroke-opacity="0.4" fill-opacity="0.4" stroke-linecap="round" transform="translate(348.39996337890625 333.6000061035156) rotate(0 54 54)"><path d="M51.5 0.23 C60.03 -0.99, 72.27 2.03, 80.28 6.19 C88.3 10.35, 95.02 17.55, 99.58 25.19 C104.14 32.84, 107.3 42.96, 107.64 52.06 C107.98 61.15, 105.68 71.65, 101.62 79.75 C97.56 87.84, 90.76 95.79, 83.27 100.64 C75.77 105.49, 65.87 108.78, 56.67 108.83 C47.46 108.87, 36.15 105.23, 28.02 100.92 C19.89 96.62, 12.49 90.58, 7.88 83.01 C3.27 75.44, 0.7 64.64, 0.35 55.5 C-0.01 46.36, 1.61 36.16, 5.76 28.16 C9.92 20.16, 17.23 12.33, 25.29 7.48 C33.35 2.64, 48.87 0.24, 54.13 -0.9 C59.39 -2.05, 56.72 -0.33, 56.83 0.63 M64.54 1.53 C72.86 1.93, 80.56 6.28, 87.17 11.93 C93.77 17.58, 101.04 26.92, 104.17 35.42 C107.3 43.91, 107.46 54, 105.95 62.9 C104.45 71.79, 100.5 81.89, 95.13 88.78 C89.75 95.67, 81.93 101.25, 73.7 104.25 C65.47 107.25, 54.57 108.22, 45.75 106.77 C36.94 105.32, 27.88 101.11, 20.83 95.55 C13.78 89.98, 7.04 81.62, 3.45 73.38 C-0.15 65.14, -2.07 55.06, -0.72 46.11 C0.64 37.17, 5.8 26.64, 11.55 19.7 C17.31 12.77, 25.18 7.76, 33.81 4.48 C42.43 1.2, 58.26 0.49, 63.3 0.03 C68.34 -0.44, 64.46 0.87, 64.05 1.69" stroke="#1971c2" stroke-width="2" fill="none"></path></g><g stroke-opacity="0.4" fill-opacity="0.4" stroke-linecap="round" transform="translate(389.9999694824219 376) rotate(0 12 12)"><path d="M8.96 0.72 C11.24 -0.08, 15.04 -0.33, 17.32 0.82 C19.59 1.98, 21.53 5.25, 22.62 7.64 C23.71 10.02, 24.47 12.77, 23.87 15.13 C23.26 17.49, 21.29 20.39, 19.01 21.82 C16.73 23.25, 12.82 23.94, 10.17 23.72 C7.52 23.49, 4.87 22.27, 3.12 20.47 C1.37 18.67, -0.25 15.5, -0.36 12.93 C-0.47 10.37, 0.73 7.16, 2.47 5.05 C4.21 2.95, 8.75 1.11, 10.07 0.29 C11.39 -0.53, 10.43 0.02, 10.42 0.13 M12.92 0.59 C15.53 0.74, 19.48 2.75, 21.38 4.47 C23.27 6.18, 24.28 8.53, 24.29 10.9 C24.29 13.27, 22.98 16.55, 21.41 18.71 C19.84 20.87, 17.33 23.18, 14.86 23.84 C12.38 24.5, 8.79 23.83, 6.57 22.68 C4.35 21.52, 2.46 19.21, 1.54 16.9 C0.62 14.59, 0.27 11.23, 1.06 8.84 C1.84 6.45, 4.26 3.92, 6.25 2.53 C8.24 1.15, 11.8 0.99, 13.01 0.53 C14.23 0.07, 13.54 -0.46, 13.56 -0.22" stroke="none" stroke-width="0" fill="#ffc9c9"></path><path d="M14.64 0.14 C17.1 0.4, 19.61 2.28, 21.14 4.26 C22.67 6.25, 23.84 9.44, 23.84 12.07 C23.83 14.69, 22.69 17.95, 21.11 19.99 C19.52 22.02, 16.78 23.8, 14.32 24.26 C11.85 24.73, 8.63 24.22, 6.31 22.79 C3.98 21.35, 1.32 18.11, 0.37 15.65 C-0.59 13.18, -0.4 10.39, 0.57 8 C1.55 5.62, 3.89 2.68, 6.22 1.36 C8.55 0.04, 13.02 0.24, 14.55 0.07 C16.07 -0.09, 15.42 0.21, 15.37 0.37 M10.17 0.33 C12.66 -0.03, 16.34 1.08, 18.69 2.52 C21.03 3.95, 23.63 6.6, 24.24 8.94 C24.86 11.27, 23.56 14.19, 22.38 16.5 C21.2 18.82, 19.46 21.64, 17.16 22.82 C14.86 24.01, 11.1 24.19, 8.6 23.6 C6.09 23.02, 3.5 21.42, 2.15 19.34 C0.8 17.26, 0.22 13.75, 0.48 11.12 C0.73 8.49, 1.87 5.38, 3.67 3.54 C5.46 1.69, 10.07 0.55, 11.24 0.06 C12.41 -0.42, 10.87 0.32, 10.67 0.62" stroke="#e03131" stroke-width="2" fill="none"></path></g><g stroke-opacity="0.4" fill-opacity="0.4" stroke-linecap="round" transform="translate(497.20001220703125 327.9999694824219) rotate(0 54 54)"><path d="M45.75 1.32 C54.21 -0.69, 65.51 1.27, 74 4.24 C82.48 7.22, 91.26 12.38, 96.68 19.17 C102.1 25.96, 105.16 35.92, 106.52 44.97 C107.89 54.02, 107.98 65.06, 104.85 73.44 C101.72 81.83, 94.86 89.65, 87.74 95.28 C80.63 100.91, 71.09 105.8, 62.15 107.23 C53.22 108.67, 42.61 107.16, 34.13 103.9 C25.65 100.65, 16.94 94.55, 11.27 87.7 C5.61 80.85, 1.54 71.57, 0.14 62.82 C-1.25 54.07, -0.38 43.52, 2.92 35.21 C6.23 26.89, 11.96 18.67, 19.96 12.91 C27.96 7.15, 45.3 2.69, 50.92 0.66 C56.54 -1.36, 53.84 -0.08, 53.69 0.76 M31.9 5.79 C39.31 1.74, 49.92 0.13, 58.75 1.04 C67.58 1.96, 77.47 6.19, 84.86 11.29 C92.25 16.39, 99.17 23.91, 103.08 31.64 C107 39.36, 109 48.85, 108.35 57.65 C107.69 66.46, 104.44 77.11, 99.14 84.46 C93.85 91.8, 84.78 97.79, 76.59 101.71 C68.4 105.64, 59.08 108.43, 49.98 108.01 C40.87 107.58, 29.48 104.66, 21.94 99.17 C14.4 93.69, 8.55 83.28, 4.74 75.11 C0.93 66.93, -1.98 58.98, -0.92 50.1 C0.14 41.22, 5.49 29.45, 11.1 21.81 C16.72 14.18, 29.5 7.06, 32.75 4.3 C36.01 1.53, 30.53 4.22, 30.63 5.25" stroke="#1971c2" stroke-width="2" fill="none"></path></g><g stroke-opacity="0.4" fill-opacity="0.4" stroke-linecap="round" transform="translate(538.8000183105469 370.39996337890625) rotate(0 12 12)"><path d="M13.98 -0.26 C16.42 -0.07, 19.34 2.19, 21.05 4.19 C22.75 6.19, 24.17 9.09, 24.22 11.71 C24.27 14.33, 23.02 17.8, 21.35 19.9 C19.68 21.99, 16.76 23.83, 14.2 24.3 C11.63 24.78, 8.26 24.09, 5.97 22.73 C3.67 21.38, 1.37 18.62, 0.42 16.17 C-0.53 13.73, -0.61 10.43, 0.28 8.08 C1.17 5.72, 3.44 3.27, 5.75 2.02 C8.07 0.78, 12.58 0.79, 14.18 0.62 C15.78 0.45, 15.3 0.93, 15.36 1 M11.74 0.14 C14.29 -0.03, 17.41 1.55, 19.47 3.2 C21.52 4.86, 23.48 7.52, 24.08 10.04 C24.67 12.57, 24.21 16.26, 23.05 18.35 C21.89 20.44, 19.52 21.72, 17.12 22.57 C14.72 23.41, 11.32 24.15, 8.67 23.4 C6.02 22.65, 2.54 20.11, 1.24 18.04 C-0.07 15.97, 0.47 13.42, 0.83 10.97 C1.19 8.52, 1.7 5.09, 3.41 3.36 C5.12 1.62, 9.81 1.08, 11.09 0.56 C12.38 0.03, 10.98 0.12, 11.14 0.21" stroke="none" stroke-width="0" fill="#ffc9c9"></path><path d="M12.2 0.37 C14.67 0.06, 18.1 0.8, 19.96 2.32 C21.83 3.85, 22.93 6.9, 23.39 9.51 C23.84 12.11, 23.9 15.71, 22.69 17.95 C21.47 20.18, 18.59 22.03, 16.11 22.92 C13.64 23.82, 10.32 24.16, 7.86 23.32 C5.4 22.49, 2.72 20.14, 1.36 17.91 C0 15.67, -0.72 12.4, -0.31 9.92 C0.1 7.44, 1.79 4.65, 3.83 3.03 C5.86 1.4, 10.42 0.57, 11.89 0.17 C13.36 -0.23, 12.52 0.4, 12.65 0.62 M9.55 -0.37 C11.94 -1.04, 15.23 -0.23, 17.51 1.15 C19.8 2.53, 22.32 5.43, 23.27 7.91 C24.23 10.39, 24.09 13.58, 23.24 16.05 C22.39 18.53, 20.32 21.48, 18.17 22.79 C16.03 24.1, 12.83 24.5, 10.37 23.93 C7.91 23.35, 5.04 21.31, 3.41 19.33 C1.79 17.35, 0.72 14.61, 0.59 12.04 C0.45 9.48, 1.02 5.89, 2.59 3.95 C4.16 2.01, 8.91 0.88, 10 0.4 C11.1 -0.08, 9.2 1.04, 9.13 1.1" stroke="#e03131" stroke-width="2" fill="none"></path></g><g stroke-opacity="0.4" fill-opacity="0.4" stroke-linecap="round" transform="translate(629.2000122070312 316.8000183105469) rotate(0 54 54)"><path d="M33.93 3.57 C41.52 -0.53, 51.96 -1.2, 60.81 -0.02 C69.67 1.15, 79.95 5.15, 87.05 10.6 C94.15 16.06, 100.08 24.34, 103.41 32.71 C106.74 41.07, 108.13 51.82, 107.03 60.79 C105.93 69.76, 102.17 79.31, 96.79 86.54 C91.4 93.76, 82.95 100.47, 74.72 104.13 C66.48 107.79, 56.26 109.89, 47.37 108.5 C38.49 107.11, 28.68 101.54, 21.4 95.8 C14.11 90.06, 7.13 82.41, 3.67 74.08 C0.21 65.74, -0.62 54.71, 0.64 45.79 C1.9 36.88, 5.18 27.65, 11.25 20.58 C17.32 13.52, 32.25 6.27, 37.07 3.4 C41.89 0.54, 39.98 2.49, 40.18 3.38 M51.86 1.16 C60.24 0.2, 71.7 2.66, 79.56 7.06 C87.42 11.45, 94.24 19.94, 99.02 27.53 C103.8 35.12, 107.71 43.81, 108.25 52.6 C108.79 61.39, 106.95 72.5, 102.28 80.28 C97.61 88.06, 87.98 94.47, 80.25 99.27 C72.52 104.07, 64.82 108.59, 55.9 109.09 C46.98 109.59, 34.87 107.1, 26.71 102.28 C18.56 97.47, 11.54 88.21, 6.99 80.19 C2.43 72.17, -0.71 63.12, -0.61 54.16 C-0.52 45.21, 2.94 34.15, 7.56 26.44 C12.17 18.73, 19.34 12.08, 27.07 7.91 C34.8 3.74, 49.54 2.36, 53.94 1.42 C58.34 0.47, 53.71 1.5, 53.48 2.24" stroke="#1971c2" stroke-width="2" fill="none"></path></g><g stroke-opacity="0.4" fill-opacity="0.4" stroke-linecap="round" transform="translate(670.8000183105469 359.20001220703125) rotate(0 12 12)"><path d="M13.75 0.11 C16.24 0.14, 19.31 1.64, 21.04 3.41 C22.77 5.18, 23.98 8.16, 24.13 10.72 C24.28 13.27, 23.42 16.67, 21.96 18.75 C20.49 20.83, 17.82 22.48, 15.34 23.2 C12.85 23.93, 9.36 24.14, 7.04 23.11 C4.72 22.09, 2.56 19.47, 1.4 17.05 C0.23 14.64, -0.51 11.07, 0.07 8.6 C0.65 6.13, 2.64 3.63, 4.9 2.23 C7.16 0.82, 12.16 0.43, 13.65 0.19 C15.14 -0.05, 13.85 0.56, 13.85 0.8 M13.31 0.57 C15.63 0.6, 19.33 1.58, 21.06 3.57 C22.8 5.56, 23.56 9.94, 23.72 12.51 C23.87 15.07, 23.53 17.17, 22 18.96 C20.48 20.75, 17.13 22.74, 14.59 23.25 C12.04 23.76, 9.03 23.1, 6.73 22 C4.42 20.91, 1.79 18.99, 0.76 16.7 C-0.26 14.4, -0.2 10.73, 0.58 8.24 C1.36 5.75, 3.34 3.18, 5.45 1.74 C7.56 0.29, 11.84 -0.29, 13.25 -0.44 C14.66 -0.59, 13.75 0.55, 13.9 0.81" stroke="none" stroke-width="0" fill="#ffc9c9"></path><path d="M12.8 -0.22 C15.22 -0.18, 18.66 1.37, 20.47 3.16 C22.28 4.95, 23.47 7.95, 23.66 10.52 C23.84 13.1, 23 16.49, 21.58 18.62 C20.16 20.75, 17.57 22.59, 15.15 23.31 C12.73 24.03, 9.35 23.89, 7.08 22.93 C4.8 21.97, 2.54 19.96, 1.48 17.55 C0.41 15.14, 0.09 11.03, 0.67 8.44 C1.25 5.85, 2.85 3.47, 4.97 2 C7.1 0.54, 12 -0.05, 13.44 -0.35 C14.87 -0.65, 13.6 -0.12, 13.58 0.2 M11.88 0.01 C14.25 -0.21, 17.31 1.01, 19.15 2.64 C20.99 4.26, 22.4 7.29, 22.92 9.75 C23.45 12.21, 23.46 15.11, 22.32 17.41 C21.18 19.71, 18.37 22.59, 16.1 23.55 C13.84 24.5, 10.99 23.97, 8.74 23.14 C6.49 22.32, 4.15 20.75, 2.6 18.57 C1.04 16.4, -0.88 12.54, -0.59 10.09 C-0.3 7.63, 2.44 5.44, 4.34 3.86 C6.24 2.28, 9.71 1.33, 10.81 0.62 C11.92 -0.1, 10.93 -0.49, 10.97 -0.43" stroke="#e03131" stroke-width="2" fill="none"></path></g></svg>