<svg version="1.1" xmlns="http://www.w3.org/2000/svg" viewBox="0 0 783.9763852249432 802.1219856201676" width="783.9763852249432" height="802.1219856201676" class="excalidraw-svg"><!-- svg-source:excalidraw --><metadata></metadata><defs><style class="style-fonts">
      </style></defs><rect x="0" y="0" width="783.9763852249432" height="802.1219856201676" fill="#ffffff"></rect><g stroke-linecap="round" transform="translate(283.56561901792577 10) rotate(0 12.800018310546875 225.1999969482422)"><path d="M6.4 0 C13.13 0.69, 16.91 -1.87, 19.2 0 C24 0.04, 23.11 0.23, 25.6 6.4 C26.67 128.19, 24.25 247.94, 25.6 444 C25.49 449.41, 20.86 446.92, 19.2 450.4 C12.31 450.79, 11.38 449.47, 6.4 450.4 C0.33 451.17, -0.79 449.29, 0 444 C4.29 318.53, 1.31 191.75, 0 6.4 C0.28 -0.79, -0.25 -3.19, 6.4 0" stroke="none" stroke-width="0" fill="#ffc9c9"></path><path d="M6.4 0 C12.04 -0.68, 15.68 1, 19.2 0 M6.4 0 C10.38 -0.47, 13.34 0.21, 19.2 0 M19.2 0 C23.54 0.17, 26.47 3.28, 25.6 6.4 M19.2 0 C21.23 -2.19, 27.63 3.11, 25.6 6.4 M25.6 6.4 C23.99 139.17, 24.32 273.93, 25.6 444 M25.6 6.4 C24.41 94.89, 24.1 183.3, 25.6 444 M25.6 444 C25.02 449.85, 21.99 450.69, 19.2 450.4 M25.6 444 C25.61 446.04, 22.49 452.12, 19.2 450.4 M19.2 450.4 C16.41 450.24, 11.33 450.83, 6.4 450.4 M19.2 450.4 C14.68 450.72, 11.55 450.65, 6.4 450.4 M6.4 450.4 C0.98 452.07, 1.13 449.8, 0 444 M6.4 450.4 C2.51 448.43, -0.86 447.06, 0 444 M0 444 C0.19 293.5, -1.02 141.42, 0 6.4 M0 444 C0.26 354.78, -0.13 266.45, 0 6.4 M0 6.4 C-1.94 2.06, 3.2 -1.91, 6.4 0 M0 6.4 C-2.08 4.01, 0.03 1.82, 6.4 0" stroke="#1e1e1e" stroke-width="2" fill="none"></path></g><g stroke-linecap="round" transform="translate(435.56558850034764 10.400009155273438) rotate(0 12.800018310546875 225.1999969482422)"><path d="M6.4 0 C8.08 -0.89, 10.57 -0.13, 19.2 0 C24.4 0.28, 27.87 0.9, 25.6 6.4 C23.26 104.89, 24.65 207.12, 25.6 444 C24.92 446.18, 23.05 447.47, 19.2 450.4 C13.89 448.07, 10.36 451.52, 6.4 450.4 C-1.33 447.41, -3.44 448.74, 0 444 C4.68 298.68, 4.25 150.28, 0 6.4 C-1.48 0.54, -0.17 3.33, 6.4 0" stroke="none" stroke-width="0" fill="#a5d8ff"></path><path d="M6.4 0 C9.37 -0.84, 13.03 0.19, 19.2 0 M6.4 0 C9.46 -0.46, 11.49 0.57, 19.2 0 M19.2 0 C24.09 0.82, 23.93 2.39, 25.6 6.4 M19.2 0 C25.57 -1.02, 24.45 2.63, 25.6 6.4 M25.6 6.4 C25.52 127.52, 27.06 249.76, 25.6 444 M25.6 6.4 C23.25 101.57, 23.22 197.2, 25.6 444 M25.6 444 C23.62 450.04, 24.29 449.45, 19.2 450.4 M25.6 444 C26.96 449.65, 25.49 452.19, 19.2 450.4 M19.2 450.4 C15.21 449.07, 8.97 449.06, 6.4 450.4 M19.2 450.4 C15.9 450.83, 12.36 450.79, 6.4 450.4 M6.4 450.4 C0.94 452.34, -0.33 450.18, 0 444 M6.4 450.4 C0.54 451.73, 0.83 450.12, 0 444 M0 444 C-0.26 341.5, -0.98 241.22, 0 6.4 M0 444 C0.91 289.65, 0.82 134.72, 0 6.4 M0 6.4 C1.65 3.64, 3.43 1.85, 6.4 0 M0 6.4 C0.22 0.85, 3.79 1.83, 6.4 0" stroke="#1e1e1e" stroke-width="2" fill="none"></path></g><g stroke-linecap="round"><g transform="translate(308.765631224957 58.800018310546875) rotate(0 62 0)"><path d="M0.07 0.02 C20.69 -0.1, 102.46 0.38, 122.99 0.35 M-1.36 -1.02 C19.7 -1, 103.99 -1.94, 125.17 -1.58" stroke="#1e1e1e" stroke-width="2" fill="none"></path></g><g transform="translate(308.765631224957 58.800018310546875) rotate(0 62 0)"><path d="M101.67 6.94 C107.17 3.24, 113.28 1.65, 125.17 -1.58 M101.67 6.94 C107.76 4.54, 115.98 1.82, 125.17 -1.58" stroke="#1e1e1e" stroke-width="2" fill="none"></path></g><g transform="translate(308.765631224957 58.800018310546875) rotate(0 62 0)"><path d="M101.69 -10.16 C107.33 -9.83, 113.44 -7.39, 125.17 -1.58 M101.69 -10.16 C107.77 -7.61, 115.98 -5.38, 125.17 -1.58" stroke="#1e1e1e" stroke-width="2" fill="none"></path></g></g><mask></mask><g stroke-linecap="round"><g transform="translate(310.05788464051363 165.8545905426684) rotate(0 62 0)"><path d="M0.49 1.04 C21.16 0.88, 104.23 -0.96, 124.79 -0.93 M-0.71 0.53 C19.8 0.5, 103.63 0.3, 124.26 0.12" stroke="#1e1e1e" stroke-width="2" fill="none"></path></g><g transform="translate(310.05788464051363 165.8545905426684) rotate(0 62 0)"><path d="M100.81 8.79 C111.07 6.86, 116.33 2.18, 124.26 0.12 M100.81 8.79 C109.74 5.08, 118.79 2.65, 124.26 0.12" stroke="#1e1e1e" stroke-width="2" fill="none"></path></g><g transform="translate(310.05788464051363 165.8545905426684) rotate(0 62 0)"><path d="M100.72 -8.31 C111.02 -4.02, 116.31 -2.47, 124.26 0.12 M100.72 -8.31 C109.65 -5.19, 118.73 -0.78, 124.26 0.12" stroke="#1e1e1e" stroke-width="2" fill="none"></path></g></g><mask></mask><g stroke-linecap="round"><g transform="translate(312.45790905457613 273.0546027496996) rotate(0 62 0)"><path d="M-0.02 0.78 C20.62 0.53, 103.85 -0.75, 124.7 -0.83 M-1.49 0.14 C18.98 -0.04, 103.05 0, 124.12 0.27" stroke="#1e1e1e" stroke-width="2" fill="none"></path></g><g transform="translate(312.45790905457613 273.0546027496996) rotate(0 62 0)"><path d="M100.58 8.69 C110.55 6.74, 116.6 4.26, 124.12 0.27 M100.58 8.69 C107.49 6.95, 115.75 2.49, 124.12 0.27" stroke="#1e1e1e" stroke-width="2" fill="none"></path></g><g transform="translate(312.45790905457613 273.0546027496996) rotate(0 62 0)"><path d="M100.67 -8.41 C110.71 -4.02, 116.72 -0.16, 124.12 0.27 M100.67 -8.41 C107.46 -4.59, 115.69 -3.48, 124.12 0.27" stroke="#1e1e1e" stroke-width="2" fill="none"></path></g></g><mask></mask><g stroke-linecap="round"><g transform="translate(313.25795788270113 384.2545844391527) rotate(0 62 0)"><path d="M-0.89 0.75 C19.82 0.92, 104.01 0.6, 124.76 0.45 M0.84 0.1 C21.41 -0.04, 103.91 -1.6, 124.2 -1.44" stroke="#1e1e1e" stroke-width="2" fill="none"></path></g><g transform="translate(313.25795788270113 384.2545844391527) rotate(0 62 0)"><path d="M100.78 7.29 C110.12 5.72, 117.66 0.76, 124.2 -1.44 M100.78 7.29 C107.39 4.79, 114.44 1.73, 124.2 -1.44" stroke="#1e1e1e" stroke-width="2" fill="none"></path></g><g transform="translate(313.25795788270113 384.2545844391527) rotate(0 62 0)"><path d="M100.65 -9.81 C109.95 -5.5, 117.54 -4.59, 124.2 -1.44 M100.65 -9.81 C107.21 -7.44, 114.29 -5.62, 124.2 -1.44" stroke="#1e1e1e" stroke-width="2" fill="none"></path></g></g><mask></mask><g stroke-opacity="0.6" fill-opacity="0.6" transform="translate(426.9679752763612 306.593317163882) rotate(0 9.312346968366441 8.647182952645792)" stroke="none"><path fill="#1e1e1e" d="M 1.08,-0.24 Q 1.08,-0.24 1.26,0.62 1.43,1.48 1.56,2.76 1.69,4.03 1.82,5.13 1.95,6.22 2.17,7.23 2.40,8.23 2.64,8.94 2.88,9.65 3.23,10.57 3.59,11.50 3.71,12.25 3.83,13.00 4.03,13.70 4.23,14.39 4.31,15.00 4.38,15.60 5.04,15.31 5.70,15.03 6.41,15.01 7.13,14.98 7.94,14.98 8.75,14.98 9.66,14.98 10.57,14.99 11.22,14.85 11.86,14.71 12.88,14.69 13.89,14.67 14.52,14.66 15.15,14.64 15.90,14.50 16.66,14.36 17.21,14.28 17.76,14.20 17.32,14.50 16.88,14.80 16.87,13.98 16.86,13.16 16.86,12.48 16.86,11.80 16.87,11.00 16.88,10.19 16.88,9.46 16.89,8.73 16.89,8.00 16.90,7.27 16.90,6.45 16.91,5.64 16.92,4.77 16.93,3.90 16.92,3.34 16.91,2.77 16.90,2.18 16.89,1.59 17.33,2.01 17.77,2.43 16.96,2.43 16.15,2.43 15.28,2.64 14.41,2.86 13.60,3.06 12.79,3.27 12.15,3.30 11.51,3.32 10.83,3.34 10.15,3.36 9.30,3.35 8.45,3.35 7.52,3.34 6.58,3.32 5.96,3.21 5.33,3.09 4.55,3.05 3.76,3.02 2.08,2.85 0.40,2.68 0.13,2.63 -0.13,2.58 -0.36,2.45 -0.60,2.32 -0.79,2.12 -0.97,1.92 -1.08,1.67 -1.19,1.42 -1.22,1.14 -1.24,0.87 -1.18,0.61 -1.11,0.34 -0.97,0.11 -0.82,-0.11 -0.61,-0.29 -0.40,-0.46 -0.14,-0.55 0.10,-0.65 0.37,-0.66 0.65,-0.67 0.91,-0.59 1.17,-0.51 1.39,-0.36 1.62,-0.20 1.78,0.01 1.94,0.23 2.02,0.49 2.10,0.75 2.10,1.03 2.09,1.30 2.00,1.56 1.91,1.81 1.74,2.03 1.57,2.24 1.34,2.39 1.11,2.54 0.85,2.61 0.58,2.68 0.31,2.66 0.04,2.64 -0.20,2.53 -0.45,2.43 -0.66,2.24 -0.86,2.06 -1.00,1.83 -1.14,1.59 -1.19,1.32 -1.24,1.05 -1.21,0.78 -1.17,0.51 -1.06,0.27 -0.94,0.02 -0.74,-0.16 -0.55,-0.36 -0.31,-0.48 -0.07,-0.61 0.20,-0.64 0.47,-0.68 0.47,-0.68 0.46,-0.68 2.50,-0.50 4.54,-0.31 5.27,-0.23 6.00,-0.15 6.71,-0.07 7.41,-0.00 8.24,-0.01 9.08,-0.02 9.90,-0.04 10.72,-0.05 11.47,-0.09 12.21,-0.13 12.91,-0.33 13.62,-0.53 14.30,-0.68 14.98,-0.84 15.90,-0.97 16.83,-1.10 17.41,-1.09 18.00,-1.07 18.71,-0.87 19.42,-0.66 19.75,-0.15 20.09,0.35 20.22,1.14 20.35,1.94 20.33,2.66 20.32,3.38 20.32,4.03 20.31,4.69 20.33,5.61 20.34,6.53 20.35,7.32 20.35,8.11 20.35,8.70 20.35,9.30 20.35,10.12 20.36,10.94 20.37,11.71 20.38,12.48 20.38,13.18 20.38,13.89 20.36,14.44 20.34,15.00 20.15,15.69 19.96,16.38 19.24,16.82 18.52,17.26 17.73,17.48 16.93,17.70 16.38,17.83 15.83,17.95 15.18,17.95 14.53,17.94 13.77,17.95 13.01,17.96 12.35,17.98 11.69,18.00 11.16,18.13 10.62,18.26 9.69,18.27 8.76,18.28 7.96,18.28 7.16,18.28 6.52,18.28 5.88,18.28 5.35,18.37 4.82,18.47 4.26,18.60 3.71,18.72 3.18,18.59 2.66,18.45 2.29,17.60 1.92,16.75 1.77,15.84 1.62,14.93 1.51,14.37 1.40,13.81 1.45,13.09 1.49,12.38 1.47,11.81 1.46,11.23 1.31,10.69 1.16,10.14 0.98,9.39 0.80,8.64 0.50,7.57 0.20,6.50 -0.00,5.40 -0.22,4.31 -0.44,3.13 -0.67,1.95 -0.88,1.09 -1.08,0.24 -1.09,0.10 -1.11,-0.02 -1.09,-0.15 -1.07,-0.29 -1.02,-0.41 -0.97,-0.53 -0.89,-0.64 -0.81,-0.75 -0.71,-0.84 -0.61,-0.93 -0.49,-0.99 -0.37,-1.04 -0.23,-1.07 -0.10,-1.10 0.02,-1.10 0.15,-1.10 0.28,-1.06 0.41,-1.03 0.53,-0.96 0.65,-0.90 0.75,-0.81 0.85,-0.71 0.92,-0.60 0.99,-0.49 1.04,-0.36 1.08,-0.24 1.08,-0.24 L 1.08,-0.24 Z"></path></g><g stroke-opacity="0.6" fill-opacity="0.6" transform="translate(463.9899213565253 154.71707713650744) rotate(0 154.99323193420895 241.01637735040023)" stroke="none"><path fill="#1e1e1e" d="M 0,-0.78 Q 0,-0.78 4.35,-0.76 8.71,-0.74 15.32,-1.38 21.93,-2.02 31.75,-2.29 41.58,-2.56 57.95,-2.67 74.33,-2.79 87.82,-2.61 101.32,-2.44 116.44,-1.93 131.55,-1.42 142.78,-0.33 154.01,0.75 166.66,3.40 179.31,6.05 189.25,8.48 199.20,10.92 206.94,13.70 214.68,16.49 222.54,19.64 230.41,22.78 235.28,24.99 240.16,27.21 244.22,29.69 248.29,32.17 250.91,34.34 253.53,36.50 255.72,38.28 257.90,40.06 259.98,42.83 262.05,45.61 263.80,48.53 265.55,51.46 267.39,55.78 269.24,60.10 271.32,65.42 273.41,70.73 275.39,76.71 277.37,82.69 280.17,91.10 282.97,99.52 285.47,107.24 287.97,114.96 290.77,125.00 293.58,135.05 295.65,143.47 297.72,151.88 299.25,161.14 300.79,170.41 301.66,178.27 302.53,186.14 303.33,195.80 304.14,205.46 304.92,213.27 305.70,221.07 306.24,229.63 306.79,238.19 307.68,248.79 308.57,259.38 309.16,267.16 309.76,274.94 310.01,281.31 310.26,287.68 310.37,296.05 310.48,304.43 310.52,310.82 310.57,317.21 310.15,323.65 309.74,330.09 309.12,335.45 308.51,340.81 307.81,349.17 307.12,357.54 306.60,362.62 306.09,367.71 305.43,373.58 304.78,379.45 304.06,383.27 303.35,387.10 302.82,389.80 302.30,392.51 301.64,394.99 300.98,397.47 300.26,399.62 299.53,401.78 299.01,403.34 298.49,404.90 298.05,406.21 297.61,407.53 297.20,408.55 296.78,409.57 295.92,410.72 295.05,411.87 294.50,412.58 293.95,413.29 292.14,414.91 290.33,416.53 288.95,418.05 287.56,419.57 285.86,421.32 284.17,423.08 281.02,425.59 277.87,428.10 273.27,431.56 268.67,435.02 263.42,438.24 258.17,441.47 252.03,445.23 245.89,448.99 240.01,452.55 234.13,456.11 228.12,459.16 222.11,462.21 218.28,464.37 214.44,466.52 210.60,468.32 206.76,470.12 203.39,471.54 200.01,472.96 196.16,474.23 192.30,475.49 185.41,476.91 178.52,478.32 171.45,479.36 164.37,480.39 153.52,481.70 142.67,483.02 136.31,483.57 129.95,484.13 123.75,484.37 117.55,484.61 113.61,484.71 109.66,484.81 106.90,484.85 104.13,484.89 100.34,484.91 96.55,484.93 92.10,484.94 87.66,484.95 82.72,484.95 77.78,484.95 72.63,484.95 67.48,484.96 63.77,484.96 60.05,484.96 56.95,484.96 53.85,484.96 51.66,484.96 49.46,484.96 47.37,484.51 45.29,484.07 43.80,483.89 42.32,483.71 41.04,483.63 39.77,483.56 38.79,483.54 37.81,483.53 37.18,483.57 36.54,483.62 35.62,483.62 34.70,483.63 33.88,483.65 33.05,483.67 31.39,483.64 29.73,483.61 27.94,483.58 26.14,483.56 24.29,483.55 22.44,483.53 20.13,483.52 17.81,483.51 16.18,483.50 14.54,483.49 12.97,483.48 11.41,483.48 10.30,483.47 9.20,483.47 7.26,483.83 5.32,484.19 5.19,484.20 5.06,484.20 4.93,484.17 4.81,484.14 4.70,484.07 4.59,483.99 4.51,483.89 4.43,483.79 4.39,483.67 4.35,483.54 4.35,483.41 4.35,483.28 4.39,483.16 4.43,483.04 4.50,482.93 4.58,482.83 4.69,482.76 4.79,482.68 4.92,482.65 5.04,482.61 5.17,482.62 5.30,482.62 5.42,482.67 5.54,482.72 5.64,482.80 5.74,482.88 5.81,482.99 5.88,483.10 5.91,483.23 5.94,483.36 5.92,483.48 5.91,483.61 5.86,483.73 5.80,483.85 5.72,483.94 5.63,484.04 5.51,484.10 5.40,484.16 5.27,484.19 5.14,484.21 5.02,484.19 4.89,484.17 4.77,484.11 4.66,484.05 4.57,483.96 4.48,483.86 4.42,483.75 4.37,483.63 4.35,483.50 4.34,483.37 4.36,483.24 4.39,483.12 4.46,483.01 4.52,482.89 4.62,482.81 4.72,482.72 4.84,482.68 4.96,482.63 4.96,482.63 4.96,482.63 7.08,482.37 9.20,482.10 10.30,482.10 11.41,482.10 12.97,482.09 14.54,482.08 16.18,482.07 17.81,482.07 20.13,482.05 22.44,482.04 24.29,482.03 26.14,482.01 27.94,481.99 29.73,481.97 31.39,481.94 33.06,481.91 33.89,481.94 34.72,481.96 35.65,481.98 36.58,482.00 37.22,482.07 37.86,482.14 38.85,482.20 39.85,482.25 41.16,482.33 42.48,482.41 44.02,482.60 45.56,482.79 47.52,483.22 49.47,483.64 51.66,483.64 53.85,483.64 56.95,483.64 60.05,483.64 63.77,483.64 67.48,483.64 72.63,483.64 77.78,483.64 82.72,483.64 87.66,483.63 92.10,483.63 96.54,483.62 100.33,483.60 104.11,483.58 106.87,483.54 109.63,483.50 113.56,483.40 117.50,483.30 123.67,483.06 129.83,482.82 136.18,482.27 142.52,481.71 153.35,480.40 164.18,479.09 171.22,478.06 178.25,477.03 185.07,475.64 191.89,474.24 195.70,473.00 199.50,471.75 202.85,470.34 206.20,468.93 210.00,467.15 213.79,465.37 217.65,463.20 221.52,461.03 227.48,458.00 233.44,454.98 239.32,451.42 245.19,447.86 251.33,444.10 257.47,440.33 262.67,437.14 267.86,433.94 272.44,430.49 277.02,427.04 280.10,424.58 283.18,422.12 284.86,420.38 286.53,418.64 287.96,417.06 289.38,415.48 291.11,413.91 292.83,412.35 293.42,411.71 294.01,411.07 294.79,410.06 295.57,409.06 295.97,408.09 296.37,407.11 296.81,405.80 297.25,404.48 297.77,402.92 298.29,401.36 299.00,399.24 299.71,397.13 300.36,394.70 301.01,392.26 301.53,389.56 302.05,386.86 302.76,383.08 303.47,379.30 304.13,373.44 304.78,367.58 305.30,362.50 305.81,357.43 306.51,349.04 307.20,340.66 307.81,335.33 308.43,330.01 308.84,323.61 309.26,317.22 309.21,310.83 309.17,304.44 309.06,296.09 308.95,287.73 308.70,281.38 308.45,275.04 307.85,267.27 307.26,259.49 306.37,248.88 305.48,238.27 304.94,229.73 304.39,221.20 303.61,213.39 302.83,205.57 302.03,195.93 301.22,186.28 300.36,178.45 299.49,170.62 297.97,161.41 296.44,152.19 294.38,143.80 292.32,135.40 289.52,125.38 286.72,115.36 284.22,107.65 281.72,99.93 278.92,91.52 276.12,83.10 274.15,77.16 272.18,71.21 270.11,65.92 268.03,60.62 266.22,56.38 264.42,52.13 262.71,49.26 260.99,46.39 259.03,43.73 257.07,41.07 254.88,39.29 252.69,37.51 250.14,35.40 247.60,33.30 243.61,30.85 239.61,28.41 234.77,26.21 229.92,24.01 222.07,20.87 214.23,17.74 206.56,14.97 198.88,12.21 188.96,9.78 179.03,7.35 166.46,4.72 153.88,2.09 142.69,1.00 131.50,-0.07 116.40,-0.57 101.31,-1.08 87.82,-1.24 74.34,-1.40 57.98,-1.28 41.62,-1.15 31.85,-0.87 22.07,-0.58 15.39,0.07 8.71,0.74 4.35,0.76 0,0.78 -0.09,0.76 -0.18,0.75 -0.27,0.72 -0.36,0.69 -0.44,0.63 -0.51,0.58 -0.58,0.51 -0.64,0.44 -0.68,0.36 -0.73,0.27 -0.75,0.18 -0.77,0.09 -0.77,-0.00 -0.77,-0.09 -0.75,-0.18 -0.73,-0.27 -0.68,-0.36 -0.64,-0.44 -0.58,-0.51 -0.51,-0.58 -0.44,-0.63 -0.36,-0.69 -0.27,-0.72 -0.18,-0.75 -0.09,-0.76 0.00,-0.78 0.00,-0.78 L 0,-0.78 Z"></path></g><g stroke-opacity="0.6" fill-opacity="0.6" transform="translate(465.50578222366664 604.9174764295833) rotate(0 -0.7579304335706638 40.927289313854715)" stroke="none"><path fill="#1e1e1e" d="M 0.78,0 Q 0.78,0 0.76,1.74 0.74,3.48 0.73,6.40 0.72,9.32 0.71,13.83 0.70,18.34 0.69,23.52 0.69,28.71 0.68,34.40 0.68,40.09 0.67,44.69 0.67,49.28 0.67,53.20 0.66,57.11 0.66,60.09 0.66,63.06 0.66,65.41 0.66,67.76 0.66,70.50 0.66,73.25 0.66,74.85 0.66,76.45 0.65,77.57 0.65,78.68 -0.12,80.53 -0.91,82.38 -1.02,82.41 -1.14,82.45 -1.25,82.44 -1.37,82.44 -1.49,82.40 -1.60,82.36 -1.69,82.28 -1.79,82.21 -1.85,82.11 -1.92,82.01 -1.95,81.89 -1.98,81.77 -1.97,81.66 -1.96,81.54 -1.91,81.43 -1.86,81.32 -1.78,81.23 -1.70,81.14 -1.60,81.08 -1.49,81.02 -1.38,81.00 -1.26,80.97 -1.14,80.99 -1.02,81.00 -0.91,81.06 -0.81,81.11 -0.72,81.19 -0.64,81.28 -0.58,81.39 -0.53,81.49 -0.51,81.61 -0.50,81.73 -0.52,81.85 -0.54,81.97 -0.60,82.07 -0.66,82.18 -0.75,82.26 -0.84,82.34 -0.95,82.38 -1.06,82.43 -1.18,82.44 -1.30,82.45 -1.41,82.42 -1.53,82.39 -1.63,82.33 -1.73,82.27 -1.81,82.17 -1.88,82.08 -1.92,81.97 -1.96,81.85 -1.97,81.73 -1.97,81.61 -1.94,81.50 -1.90,81.39 -1.83,81.29 -1.76,81.19 -1.67,81.12 -1.57,81.05 -1.57,81.05 -1.57,81.05 -1.11,79.87 -0.65,78.68 -0.65,77.57 -0.66,76.45 -0.66,74.85 -0.66,73.25 -0.66,70.50 -0.66,67.76 -0.66,65.41 -0.66,63.06 -0.66,60.09 -0.66,57.11 -0.67,53.20 -0.67,49.28 -0.67,44.69 -0.68,40.09 -0.68,34.40 -0.69,28.71 -0.69,23.52 -0.70,18.34 -0.71,13.83 -0.72,9.32 -0.73,6.40 -0.74,3.48 -0.76,1.74 -0.78,0 -0.76,-0.09 -0.75,-0.18 -0.72,-0.27 -0.69,-0.36 -0.63,-0.44 -0.58,-0.51 -0.51,-0.58 -0.44,-0.64 -0.36,-0.68 -0.27,-0.73 -0.18,-0.75 -0.09,-0.77 0.00,-0.77 0.09,-0.77 0.18,-0.75 0.27,-0.73 0.36,-0.68 0.44,-0.64 0.51,-0.58 0.58,-0.51 0.63,-0.44 0.69,-0.36 0.72,-0.27 0.75,-0.18 0.76,-0.09 0.78,0.00 0.78,0.00 L 0.78,0 Z"></path></g><g stroke-opacity="0.6" fill-opacity="0.6" transform="translate(412.4518661814888 548.0739949558213) rotate(0 5.305397386635747 122.02399533217317)" stroke="none"><path fill="#1e1e1e" d="M 0.78,0 Q 0.78,0 0.76,4.79 0.74,9.58 0.73,15.54 0.72,21.50 1.58,42.54 2.44,63.58 3.46,84.73 4.48,105.88 5.34,128.82 6.21,151.75 7.23,166.07 8.25,180.38 8.90,188.42 9.55,196.47 10.04,202.07 10.54,207.66 10.75,210.92 10.96,214.18 11.05,216.88 11.13,219.58 11.17,221.82 11.21,224.06 11.23,225.88 11.24,227.70 11.25,229.79 11.25,231.87 11.26,233.41 11.26,234.95 11.26,236.25 11.26,237.56 11.31,238.34 11.37,239.11 11.42,239.66 11.48,240.20 11.12,242.37 10.76,244.53 10.64,244.64 10.51,244.75 10.36,244.81 10.21,244.87 10.04,244.88 9.88,244.89 9.72,244.85 9.56,244.80 9.43,244.71 9.29,244.62 9.19,244.49 9.09,244.36 9.04,244.20 8.98,244.05 8.98,243.89 8.98,243.72 9.03,243.56 9.09,243.41 9.18,243.28 9.28,243.15 9.42,243.05 9.55,242.96 9.71,242.92 9.87,242.87 10.03,242.88 10.20,242.89 10.35,242.95 10.50,243.01 10.63,243.11 10.76,243.22 10.84,243.36 10.93,243.50 10.96,243.66 11.00,243.82 10.98,243.98 10.96,244.15 10.90,244.30 10.83,244.45 10.72,244.57 10.60,244.69 10.46,244.76 10.31,244.84 10.15,244.87 9.99,244.90 9.83,244.87 9.67,244.84 9.52,244.77 9.37,244.69 9.26,244.57 9.15,244.45 9.08,244.31 9.01,244.16 8.99,243.99 8.97,243.83 9.01,243.67 9.04,243.51 9.12,243.37 9.21,243.23 9.21,243.23 9.21,243.23 9.47,241.72 9.73,240.20 9.79,239.66 9.84,239.11 9.90,238.34 9.95,237.56 9.94,236.26 9.94,234.95 9.94,233.41 9.94,231.87 9.93,229.79 9.92,227.72 9.91,225.90 9.89,224.08 9.85,221.85 9.81,219.63 9.72,216.95 9.63,214.27 9.42,211.02 9.21,207.78 8.71,202.18 8.21,196.58 7.56,188.53 6.90,180.47 5.88,166.14 4.85,151.81 3.97,128.88 3.10,105.94 2.07,84.79 1.03,63.64 0.15,42.57 -0.72,21.50 -0.73,15.54 -0.74,9.58 -0.76,4.79 -0.78,0 -0.76,-0.09 -0.75,-0.18 -0.72,-0.27 -0.69,-0.36 -0.63,-0.44 -0.58,-0.51 -0.51,-0.58 -0.44,-0.64 -0.36,-0.68 -0.27,-0.73 -0.18,-0.75 -0.09,-0.77 0.00,-0.77 0.09,-0.77 0.18,-0.75 0.27,-0.73 0.36,-0.68 0.44,-0.64 0.51,-0.58 0.58,-0.51 0.63,-0.44 0.69,-0.36 0.72,-0.27 0.75,-0.18 0.76,-0.09 0.78,0.00 0.78,0.00 L 0.78,0 Z"></path></g><g stroke-opacity="0.6" fill-opacity="0.6" transform="translate(411.6939646600079 649.634360087112) rotate(0 -200.84698233000395 -203.8786317840623)" stroke="none"><path fill="#1e1e1e" d="M 0,0.78 Q 0,0.78 -1.30,0.76 -2.61,0.74 -9.05,0.73 -15.49,0.72 -28.03,0.71 -40.57,0.70 -55.08,-0.39 -69.59,-1.48 -87.74,-3.70 -105.90,-5.91 -123.42,-8.60 -140.95,-11.28 -156.91,-14.82 -172.87,-18.37 -184.24,-21.40 -195.60,-24.43 -205.89,-27.91 -216.19,-31.38 -224.05,-34.38 -231.91,-37.39 -239.61,-40.41 -247.31,-43.43 -261.72,-50.38 -276.12,-57.34 -287.71,-64.23 -299.29,-71.12 -311.19,-79.06 -323.09,-87.01 -331.00,-93.45 -338.91,-99.89 -344.25,-105.26 -349.59,-110.62 -354.26,-116.41 -358.94,-122.19 -362.46,-127.49 -365.98,-132.80 -369.89,-140.30 -373.79,-147.81 -377.41,-155.79 -381.03,-163.78 -384.10,-172.20 -387.17,-180.62 -390.00,-190.31 -392.84,-200.00 -394.91,-207.83 -396.99,-215.65 -398.53,-225.76 -400.07,-235.87 -400.72,-243.66 -401.38,-251.45 -401.44,-259.14 -401.50,-266.82 -401.31,-272.05 -401.11,-277.28 -400.37,-281.08 -399.63,-284.87 -397.78,-290.21 -395.93,-295.55 -392.96,-301.76 -389.98,-307.96 -384.34,-316.29 -378.70,-324.62 -373.91,-330.78 -369.11,-336.93 -365.77,-341.28 -362.43,-345.63 -358.37,-349.91 -354.32,-354.18 -350.86,-357.73 -347.40,-361.28 -340.66,-366.52 -333.93,-371.76 -330.44,-374.63 -326.94,-377.49 -323.48,-380.03 -320.02,-382.57 -316.34,-384.75 -312.67,-386.93 -310.26,-388.50 -307.85,-390.06 -304.63,-391.83 -301.40,-393.60 -298.72,-395.01 -296.04,-396.41 -293.37,-397.67 -290.70,-398.92 -287.12,-399.91 -283.54,-400.89 -281.16,-401.52 -278.79,-402.15 -277.32,-402.42 -275.85,-402.70 -274.38,-403.03 -272.91,-403.36 -271.18,-403.72 -269.46,-404.08 -267.16,-404.23 -264.86,-404.39 -262.58,-404.46 -260.30,-404.52 -255.82,-404.33 -251.35,-404.14 -247.29,-404.06 -243.23,-403.98 -238.01,-403.95 -232.80,-403.91 -228.20,-404.12 -223.61,-404.32 -216.63,-404.62 -209.66,-404.93 -205.61,-405.06 -201.55,-405.19 -198.32,-405.46 -195.09,-405.73 -191.95,-405.85 -188.81,-405.96 -186.42,-406.23 -184.02,-406.49 -181.23,-406.61 -178.44,-406.72 -176.20,-406.99 -173.95,-407.25 -172.10,-407.37 -170.25,-407.48 -167.93,-407.53 -165.61,-407.58 -163.76,-407.60 -161.90,-407.62 -160.90,-407.64 -159.89,-407.67 -158.81,-407.67 -157.72,-407.67 -156.61,-407.66 -155.50,-407.66 -154.59,-407.69 -153.68,-407.73 -152.86,-407.76 -152.04,-407.80 -151.25,-407.83 -150.46,-407.87 -149.70,-407.90 -148.93,-407.93 -148.16,-407.95 -147.40,-407.97 -146.42,-407.95 -145.44,-407.93 -144.37,-407.89 -143.31,-407.86 -142.63,-407.90 -141.96,-407.94 -141.24,-407.96 -140.53,-407.99 -139.92,-408.20 -139.32,-408.42 -138.49,-408.54 -137.66,-408.66 -135.67,-408.76 -133.69,-408.86 -133.51,-408.83 -133.33,-408.80 -133.17,-408.72 -133.01,-408.64 -132.89,-408.51 -132.76,-408.38 -132.68,-408.22 -132.61,-408.06 -132.58,-407.88 -132.56,-407.71 -132.60,-407.53 -132.63,-407.35 -132.72,-407.20 -132.81,-407.04 -132.95,-406.93 -133.08,-406.81 -133.25,-406.74 -133.41,-406.67 -133.59,-406.66 -133.77,-406.64 -133.94,-406.69 -134.12,-406.73 -134.27,-406.83 -134.42,-406.93 -134.53,-407.07 -134.64,-407.21 -134.70,-407.38 -134.76,-407.55 -134.76,-407.73 -134.76,-407.91 -134.71,-408.08 -134.66,-408.25 -134.55,-408.40 -134.44,-408.54 -134.30,-408.64 -134.15,-408.75 -133.98,-408.80 -133.81,-408.85 -133.63,-408.84 -133.45,-408.83 -133.28,-408.77 -133.11,-408.71 -132.97,-408.59 -132.84,-408.48 -132.74,-408.33 -132.65,-408.17 -132.60,-408.00 -132.56,-407.83 -132.58,-407.65 -132.60,-407.47 -132.67,-407.30 -132.74,-407.14 -132.86,-407.01 -132.98,-406.88 -133.14,-406.79 -133.30,-406.70 -133.47,-406.67 -133.65,-406.64 -133.65,-406.64 -133.65,-406.64 -135.53,-406.60 -137.40,-406.57 -138.07,-406.50 -138.75,-406.44 -139.63,-406.22 -140.51,-406.00 -141.23,-406.03 -141.96,-406.05 -142.63,-406.09 -143.31,-406.13 -144.37,-406.10 -145.44,-406.06 -146.42,-406.04 -147.40,-406.02 -148.16,-406.04 -148.93,-406.06 -149.69,-406.09 -150.46,-406.12 -151.25,-406.15 -152.03,-406.19 -152.86,-406.22 -153.68,-406.26 -154.59,-406.29 -155.50,-406.32 -156.61,-406.32 -157.72,-406.31 -158.80,-406.31 -159.88,-406.30 -160.88,-406.30 -161.89,-406.31 -163.73,-406.29 -165.58,-406.27 -167.87,-406.22 -170.17,-406.17 -171.98,-406.06 -173.80,-405.95 -176.09,-405.68 -178.38,-405.41 -181.13,-405.30 -183.88,-405.19 -186.32,-404.92 -188.76,-404.65 -191.87,-404.54 -194.98,-404.42 -198.24,-404.15 -201.51,-403.87 -205.56,-403.74 -209.60,-403.61 -216.58,-403.31 -223.55,-403.01 -228.18,-402.80 -232.81,-402.60 -238.03,-402.63 -243.25,-402.67 -247.33,-402.75 -251.41,-402.83 -255.83,-403.02 -260.26,-403.21 -262.51,-403.15 -264.77,-403.08 -266.98,-402.94 -269.19,-402.79 -270.91,-402.43 -272.62,-402.07 -274.12,-401.74 -275.62,-401.41 -277.03,-401.14 -278.45,-400.88 -280.82,-400.25 -283.19,-399.63 -286.67,-398.68 -290.14,-397.73 -292.79,-396.49 -295.43,-395.25 -298.10,-393.85 -300.77,-392.45 -303.95,-390.71 -307.14,-388.96 -309.57,-387.38 -312.00,-385.80 -315.62,-383.65 -319.24,-381.51 -322.67,-378.99 -326.11,-376.48 -329.62,-373.60 -333.12,-370.73 -339.79,-365.55 -346.46,-360.36 -349.91,-356.82 -353.37,-353.27 -357.38,-349.05 -361.39,-344.83 -364.73,-340.48 -368.07,-336.13 -372.84,-330.01 -377.62,-323.89 -383.21,-315.64 -388.80,-307.39 -391.74,-301.26 -394.69,-295.12 -396.52,-289.87 -398.34,-284.62 -399.07,-280.92 -399.80,-277.23 -399.99,-272.03 -400.19,-266.83 -400.13,-259.20 -400.07,-251.56 -399.42,-243.81 -398.77,-236.07 -397.24,-226.03 -395.72,-215.99 -393.65,-208.18 -391.58,-200.37 -388.76,-190.72 -385.94,-181.07 -382.89,-172.70 -379.83,-164.32 -376.23,-156.37 -372.62,-148.41 -368.76,-140.97 -364.89,-133.52 -361.40,-128.27 -357.92,-123.02 -353.29,-117.28 -348.65,-111.55 -343.37,-106.23 -338.08,-100.91 -330.22,-94.50 -322.36,-88.10 -310.49,-80.18 -298.62,-72.25 -287.08,-65.39 -275.55,-58.53 -261.19,-51.59 -246.83,-44.66 -239.13,-41.64 -231.44,-38.62 -223.60,-35.63 -215.76,-32.64 -205.51,-29.18 -195.26,-25.72 -183.92,-22.70 -172.58,-19.67 -156.66,-16.15 -140.74,-12.62 -123.24,-9.94 -105.73,-7.26 -87.61,-5.06 -69.48,-2.86 -55.03,-1.78 -40.57,-0.70 -28.03,-0.71 -15.49,-0.72 -9.05,-0.73 -2.61,-0.74 -1.30,-0.76 0,-0.78 0.09,-0.76 0.18,-0.75 0.27,-0.72 0.36,-0.69 0.44,-0.63 0.51,-0.58 0.58,-0.51 0.64,-0.44 0.68,-0.36 0.73,-0.27 0.75,-0.18 0.77,-0.09 0.77,0.00 0.77,0.09 0.75,0.18 0.73,0.27 0.68,0.36 0.64,0.44 0.58,0.51 0.51,0.58 0.44,0.63 0.36,0.69 0.27,0.72 0.18,0.75 0.09,0.76 -0.00,0.78 -0.00,0.78 L 0,0.78 Z"></path></g></svg>