<svg version="1.1" xmlns="http://www.w3.org/2000/svg" viewBox="0 0 254.4000244140625 199.19998168945312" width="254.4000244140625" height="199.19998168945312" class="excalidraw-svg"><!-- svg-source:excalidraw --><metadata></metadata><defs><style class="style-fonts">
      </style></defs><rect x="0" y="0" width="254.4000244140625" height="199.19998168945312" fill="#ffffff"></rect><g stroke-linecap="round" transform="translate(10 10) rotate(0 117.20001220703125 89.59999084472656)"><path d="M126.16 -0.72 C139.82 -1.4, 155.33 2.95, 168.14 7.75 C180.95 12.54, 193.38 20.17, 203.04 28.03 C212.69 35.9, 220.8 45.05, 226.1 54.94 C231.39 64.84, 234.48 76.36, 234.78 87.42 C235.08 98.48, 232.95 111.16, 227.88 121.31 C222.81 131.46, 213.69 140.4, 204.37 148.33 C195.05 156.26, 184.46 163.79, 171.96 168.9 C159.45 174.02, 143.62 177.69, 129.37 179.04 C115.11 180.39, 99.99 179.88, 86.42 177 C72.86 174.12, 59.42 168.37, 47.98 161.76 C36.55 155.16, 25.38 146.51, 17.83 137.35 C10.28 128.19, 5.26 117.34, 2.66 106.81 C0.06 96.28, 0.05 84.62, 2.24 74.17 C4.42 63.72, 8.7 53.18, 15.75 44.11 C22.8 35.04, 33.33 26.38, 44.53 19.76 C55.74 13.13, 67.82 7.65, 82.98 4.37 C98.14 1.1, 125.25 0.26, 135.47 0.1 C145.7 -0.07, 144.53 1.82, 144.33 3.37 M71.75 5.41 C83.53 0.15, 99.38 0.91, 113.63 0.66 C127.87 0.4, 143.59 0.23, 157.22 3.86 C170.86 7.49, 184.71 15.26, 195.44 22.44 C206.17 29.62, 215.24 37.45, 221.61 46.94 C227.98 56.44, 231.91 68.76, 233.64 79.42 C235.37 90.08, 235.71 100.64, 231.98 110.9 C228.26 121.17, 219.64 132.06, 211.3 141.01 C202.95 149.96, 193.81 158.71, 181.91 164.59 C170.02 170.47, 154.06 174.05, 139.94 176.28 C125.81 178.5, 111.02 179.33, 97.16 177.96 C83.3 176.59, 68.8 173.45, 56.8 168.03 C44.8 162.6, 33.73 154.02, 25.18 145.42 C16.62 136.82, 9.57 126.78, 5.47 116.45 C1.36 106.12, -0.23 94.31, 0.55 83.44 C1.33 72.58, 4.04 61.05, 10.13 51.25 C16.22 41.45, 26.59 32.22, 37.11 24.66 C47.62 17.09, 67.12 8.39, 73.24 5.86 C79.36 3.32, 73.38 7.82, 73.83 9.44" stroke="#1e1e1e" stroke-width="2" fill="none"></path></g></svg>