<svg version="1.1" xmlns="http://www.w3.org/2000/svg" viewBox="0 0 379.1999816894531 247.19998168945312" width="379.1999816894531" height="247.19998168945312" class="excalidraw-svg"><!-- svg-source:excalidraw --><metadata></metadata><defs><style class="style-fonts">
      </style></defs><rect x="0" y="0" width="379.1999816894531" height="247.19998168945312" fill="#ffffff"></rect><g stroke-linecap="round" transform="translate(10 10) rotate(0 179.59999084472656 113.59999084472656)"><path d="M143.91 1.29 C160.58 -2.66, 181.21 -0.15, 199.84 1.39 C218.48 2.93, 238.74 5.64, 255.74 10.53 C272.74 15.43, 288.39 22.85, 301.83 30.74 C315.27 38.64, 327.3 47.9, 336.38 57.91 C345.46 67.91, 352.75 79.42, 356.3 90.77 C359.86 102.13, 360.05 114.25, 357.71 126.03 C355.37 137.81, 349.98 150.62, 342.25 161.45 C334.53 172.29, 323.69 182.59, 311.36 191.03 C299.04 199.48, 284.52 206.54, 268.28 212.13 C252.04 217.71, 232.19 222.31, 213.92 224.56 C195.66 226.82, 176.99 226.89, 158.68 225.65 C140.38 224.42, 120.8 221.74, 104.1 217.13 C87.4 212.51, 72.06 205.97, 58.48 197.96 C44.91 189.95, 31.79 179.41, 22.63 169.09 C13.47 158.76, 6.93 147.63, 3.52 136.02 C0.12 124.41, 0.16 111.17, 2.2 99.43 C4.24 87.69, 8.2 76.01, 15.76 65.58 C23.31 55.15, 34.92 45.42, 47.52 36.85 C60.12 28.29, 74.45 20.15, 91.35 14.2 C108.26 8.25, 138.42 2.88, 148.94 1.13 C159.46 -0.61, 153.8 1.74, 154.48 3.72 M121.77 7.06 C137.63 1.8, 158.92 0.28, 177.63 0.2 C196.35 0.11, 216.16 3.21, 234.06 6.57 C251.96 9.92, 270.29 13.66, 285.04 20.33 C299.79 27, 311.67 37, 322.56 46.58 C333.46 56.16, 344.38 66.85, 350.4 77.82 C356.41 88.8, 358.34 101.03, 358.64 112.45 C358.94 123.86, 357.79 135.16, 352.21 146.33 C346.62 157.51, 336.21 169.77, 325.12 179.48 C314.03 189.19, 300.46 197.39, 285.67 204.59 C270.88 211.79, 253.86 218.68, 236.4 222.69 C218.93 226.7, 199.53 229, 180.9 228.64 C162.27 228.29, 142.19 224.31, 124.62 220.57 C107.06 216.83, 90.33 212.61, 75.5 206.21 C60.68 199.81, 46.9 191.7, 35.69 182.15 C24.47 172.61, 14.02 160.28, 8.24 148.95 C2.46 137.62, 0.79 125.6, 1.01 114.17 C1.24 102.75, 4.18 91.4, 9.58 80.38 C14.97 69.37, 22.64 57.87, 33.38 48.09 C44.12 38.3, 59.3 28.62, 74.03 21.67 C88.76 14.71, 113.47 8.75, 121.75 6.37 C130.04 4, 122.72 5.77, 123.74 7.42" stroke="#1e1e1e" stroke-width="2" fill="none"></path></g></svg>